<svg width="1334" height="593" viewBox="0 0 1334 593" fill="none" xmlns="http://www.w3.org/2000/svg">
<rect width="1334" height="593" fill="white"/>
<g clip-path="url(#clip0_369_19)">
<rect width="902" height="507.375" transform="translate(216 43)" fill="black"/>
<path d="M269.278 225.616C269.314 220.673 273.463 218.147 282.159 218.147C286.993 218.147 291.143 218.941 294.065 219.771L294.39 224.822C291.143 223.704 287.029 222.765 282.267 222.765C277.035 222.765 274.87 223.812 274.87 225.724C274.87 231.389 295.689 226.662 295.689 238.136C295.689 243.511 291.251 246.506 283.025 246.506C278.082 246.506 273.391 245.352 269.603 243.548L269.242 238.027C273.968 240.264 278.082 241.635 283.061 241.635C287.787 241.635 289.988 240.336 289.988 238.244C289.988 232.002 269.17 237.017 269.278 225.616ZM297.784 225.652H303.809L310.809 241.166L317.051 225.652H322.824L313.587 246.614C311.206 251.99 308.608 253.975 303.521 253.975C301.789 253.975 300.201 253.758 298.939 253.289L298.758 248.96C299.805 249.212 301.067 249.465 302.619 249.465C305.397 249.465 307.165 248.599 307.742 245.857L297.784 225.652ZM324.126 231.172C324.126 227.131 327.878 225.038 334.698 225.038C338.161 225.038 340.795 225.508 343.104 226.337L343.321 230.739C340.651 229.693 337.909 229.116 334.517 229.116C330.909 229.116 329.105 229.837 329.105 231.172C329.105 235.141 344.692 231.1 344.692 240.156C344.692 244.522 341.012 246.614 334.445 246.614C330.801 246.614 327.626 246.001 324.595 244.594L324.27 240.048C327.77 241.78 330.765 242.501 334.084 242.501C337.62 242.501 339.604 241.671 339.604 240.12C339.604 235.754 324.126 239.543 324.126 231.172ZM350.659 239.615V229.801H346.293V225.652H350.767V222.477L356.071 218.797V225.652H365.596V229.801H356.071V237.811C356.071 240.661 357.947 242.14 361.375 242.14C362.602 242.14 364.442 241.96 366.57 241.166L365.849 245.352C363.864 246.181 361.808 246.614 359.715 246.614C354.231 246.614 350.659 243.584 350.659 239.615ZM368.935 235.79C368.935 229.224 373.409 225.038 380.372 225.038C386.831 225.038 391.124 228.719 391.124 234.419V237.017H374.275C374.996 240.336 377.991 242.285 382.826 242.285C385.532 242.285 388.166 241.744 391.088 240.842L390.547 245.027C388.274 245.965 385.424 246.614 382.104 246.614C374.131 246.614 368.935 242.357 368.935 235.79ZM386.109 233.77C385.965 230.631 383.98 229.079 380.336 229.079C376.584 229.079 374.419 230.703 374.203 233.77H386.109ZM394.572 245.857V225.652H399.984V230.018C401.536 226.59 403.881 225.038 407.417 225.038C411.422 225.038 414.019 226.951 414.849 230.342C416.437 226.734 418.89 225.038 422.57 225.038C427.477 225.038 430.292 227.925 430.292 232.94V245.857H424.88V234.022C424.88 231.1 423.039 229.26 420.189 229.26C418.024 229.26 416.509 230.342 415.138 233.012V245.857H409.726V234.022C409.726 231.1 407.886 229.26 405.036 229.26C402.871 229.26 401.355 230.342 399.984 233.012V245.857H394.572ZM434.022 231.172C434.022 227.131 437.775 225.038 444.594 225.038C448.057 225.038 450.691 225.508 453 226.337L453.217 230.739C450.547 229.693 447.805 229.116 444.413 229.116C440.805 229.116 439.001 229.837 439.001 231.172C439.001 235.141 454.588 231.1 454.588 240.156C454.588 244.522 450.908 246.614 444.341 246.614C440.697 246.614 437.522 246.001 434.491 244.594L434.167 240.048C437.666 241.78 440.661 242.501 443.98 242.501C447.516 242.501 449.501 241.671 449.501 240.12C449.501 235.754 434.022 239.543 434.022 231.172Z" fill="white"/>
<path d="M479.808 225.038C483.344 225.038 486.41 226.626 488.07 229.404V217.534H493.482V245.857H488.07V241.852C486.158 244.991 483.271 246.614 479.808 246.614C474.035 246.614 469.705 242.14 469.705 235.754C469.705 229.296 473.999 225.038 479.808 225.038ZM481.756 229.332C477.823 229.332 475.262 231.93 475.262 235.826C475.262 239.723 477.823 242.321 481.756 242.321C485.653 242.321 488.25 239.759 488.25 235.935V235.574C488.25 231.822 485.617 229.332 481.756 229.332ZM497.259 235.79C497.259 229.224 501.733 225.038 508.696 225.038C515.154 225.038 519.448 228.719 519.448 234.419V237.017H502.598C503.32 240.336 506.315 242.285 511.149 242.285C513.855 242.285 516.489 241.744 519.412 240.842L518.871 245.027C516.597 245.965 513.747 246.614 510.428 246.614C502.454 246.614 497.259 242.357 497.259 235.79ZM514.433 233.77C514.288 230.631 512.304 229.079 508.66 229.079C504.908 229.079 502.743 230.703 502.526 233.77H514.433ZM522.355 231.172C522.355 227.131 526.107 225.038 532.926 225.038C536.39 225.038 539.024 225.508 541.333 226.337L541.549 230.739C538.879 229.693 536.137 229.116 532.746 229.116C529.138 229.116 527.334 229.837 527.334 231.172C527.334 235.141 542.92 231.1 542.92 240.156C542.92 244.522 539.24 246.614 532.674 246.614C529.03 246.614 525.855 246.001 522.824 244.594L522.499 240.048C525.999 241.78 528.993 242.501 532.313 242.501C535.849 242.501 537.833 241.671 537.833 240.12C537.833 235.754 522.355 239.543 522.355 231.172ZM546.362 225.652H551.882V245.857H546.362V225.652ZM546.398 217.534H551.918V223.054H546.398V217.534ZM555.47 235.069C555.47 229.332 559.764 225.038 565.356 225.038C568.747 225.038 571.814 226.626 573.474 228.863V225.652H578.886V242.898C578.886 251.341 572.392 253.975 565.681 253.975C562.65 253.975 559.727 253.433 557.274 252.351L556.697 247.769C559.511 248.996 562.325 249.609 565.139 249.609C570.082 249.609 573.474 247.661 573.474 243.259V240.805C571.742 243.728 568.675 245.315 565.356 245.315C559.8 245.315 555.47 240.878 555.47 235.069ZM561.026 235.249C561.026 238.857 563.516 241.419 567.376 241.419C570.984 241.419 573.654 239.146 573.654 235.718V235.357C573.654 231.425 571.021 228.935 567.376 228.935C563.588 228.935 561.026 231.605 561.026 235.249ZM582.9 245.857V225.652H588.312V230.018C589.9 226.662 592.57 225.038 596.502 225.038C601.662 225.038 604.548 227.889 604.548 232.94V245.857H599.136V234.022C599.136 231.064 597.26 229.26 594.193 229.26C591.631 229.26 589.683 230.487 588.312 233.048V245.857H582.9Z" fill="#9E9E9E"/>
<path d="M281.221 119.637C276.891 119.781 274.329 125.229 274.329 133.347C274.329 141.393 276.891 146.913 281.221 147.058V151.387C273.716 151.279 268.917 144.279 268.917 133.347C268.917 122.343 273.716 115.415 281.221 115.307V119.637ZM282.66 127.574V123.425H286.881V123.137C286.881 118.085 290.562 115.127 296.803 115.127C299.257 115.127 301.35 115.452 303.478 116.101L303.659 120.394C301.746 119.709 299.87 119.456 297.814 119.456C294.17 119.456 292.293 120.575 292.293 123.245V123.425H301.422V127.574H292.293V143.63H286.881V127.574H282.66ZM303.505 138.795C303.505 134.141 308.231 131.868 317.973 131.868H319.308V131.182C319.308 128.476 317.107 126.961 313.21 126.961C310.721 126.961 308.52 127.466 305.164 128.729V124.76C307.834 123.497 310.468 122.812 313.751 122.812C320.715 122.812 324.612 125.951 324.612 131.579V143.63H319.344V140.022C317.396 142.548 314.437 144.279 310.504 144.279C306.103 144.279 303.505 142.223 303.505 138.795ZM308.664 138.038C308.664 139.481 310.035 140.347 312.2 140.347C314.509 140.347 316.927 139.409 319.308 137.605V135.115H318.117C311.082 135.115 308.664 136.125 308.664 138.038ZM349.901 123.425V143.63H344.489V139.409C342.937 142.764 340.34 144.388 336.515 144.388C331.356 144.388 328.469 141.537 328.469 136.486V123.425H333.881V135.404C333.881 138.362 335.757 140.166 338.824 140.166C341.242 140.166 343.118 138.94 344.489 136.414V123.425H349.901ZM353.723 128.945C353.723 124.904 357.475 122.812 364.294 122.812C367.758 122.812 370.392 123.281 372.701 124.111L372.918 128.512C370.248 127.466 367.506 126.889 364.114 126.889C360.506 126.889 358.702 127.61 358.702 128.945C358.702 132.914 374.289 128.873 374.289 137.929C374.289 142.295 370.608 144.388 364.042 144.388C360.398 144.388 357.223 143.774 354.192 142.367L353.867 137.821C357.367 139.553 360.362 140.275 363.681 140.275C367.217 140.275 369.201 139.445 369.201 137.893C369.201 133.528 353.723 137.316 353.723 128.945ZM380.256 137.388V127.574H375.89V123.425H380.364V120.25L385.668 116.57V123.425H395.193V127.574H385.668V135.584C385.668 138.434 387.544 139.914 390.972 139.914C392.198 139.914 394.038 139.733 396.167 138.94L395.446 143.125C393.461 143.955 391.405 144.388 389.312 144.388C383.828 144.388 380.256 141.357 380.256 137.388ZM399.61 147.058C403.94 146.913 406.501 141.465 406.501 133.347C406.501 125.301 403.94 119.781 399.61 119.637V115.307C407.115 115.415 411.913 122.415 411.913 133.347C411.913 144.352 407.115 151.279 399.61 151.387V147.058Z" fill="#838383"/>
<path d="M269.639 310.5V283.44H287.895C294.245 283.44 296.951 287.445 296.951 291.919C296.951 297.692 292.441 300.398 287.895 300.398H275.412V310.5H269.639ZM286.091 295.707C289.699 295.707 291.179 294.589 291.179 291.919C291.179 289.249 289.591 288.13 285.839 288.13H275.412V295.707H286.091ZM300.39 282.177H305.802V310.5H300.39V282.177ZM309.213 305.665C309.213 301.011 313.939 298.738 323.681 298.738H325.016V298.052C325.016 295.346 322.815 293.831 318.918 293.831C316.429 293.831 314.228 294.336 310.872 295.599V291.63C313.542 290.367 316.176 289.682 319.459 289.682C326.423 289.682 330.32 292.821 330.32 298.449V310.5H325.052V306.892C323.104 309.418 320.145 311.149 316.212 311.149C311.81 311.149 309.213 309.093 309.213 305.665ZM314.372 304.908C314.372 306.351 315.743 307.217 317.908 307.217C320.217 307.217 322.634 306.279 325.016 304.475V301.985H323.825C316.79 301.985 314.372 302.995 314.372 304.908ZM336.847 304.258V294.444H332.482V290.295H336.955V287.12L342.259 283.44V290.295H351.784V294.444H342.259V302.454C342.259 305.304 344.135 306.784 347.563 306.784C348.79 306.784 350.63 306.603 352.758 305.81L352.037 309.995C350.052 310.825 347.996 311.258 345.903 311.258C340.419 311.258 336.847 308.227 336.847 304.258ZM354.397 294.444V290.295H358.619V290.007C358.619 284.955 362.299 281.997 368.541 281.997C370.994 281.997 373.087 282.322 375.215 282.971L375.396 287.264C373.484 286.579 371.607 286.326 369.551 286.326C365.907 286.326 364.031 287.445 364.031 290.115V290.295H373.159V294.444H364.031V310.5H358.619V294.444H354.397ZM387.153 311.258C379.792 311.258 375.066 306.928 375.066 300.506C375.066 293.975 379.828 289.682 387.153 289.682C394.513 289.682 399.239 293.975 399.239 300.506C399.239 306.928 394.513 311.258 387.153 311.258ZM387.153 306.892C391.013 306.892 393.683 304.402 393.683 300.506C393.683 296.537 391.013 294.011 387.153 294.011C383.292 294.011 380.622 296.537 380.622 300.506C380.622 304.402 383.292 306.892 387.153 306.892ZM402.712 310.5V290.295H407.979V295.022C409.603 291.594 412.814 290.007 416.097 290.007C416.602 290.007 417.107 290.043 417.613 290.115V295.455C416.386 295.13 415.231 294.986 414.149 294.986C411.732 294.986 409.639 295.779 408.124 297.295V310.5H402.712ZM420.54 310.5V290.295H425.952V294.661C427.504 291.233 429.849 289.682 433.385 289.682C437.389 289.682 439.987 291.594 440.817 294.986C442.405 291.378 444.858 289.682 448.538 289.682C453.445 289.682 456.259 292.568 456.259 297.583V310.5H450.847V298.666C450.847 295.743 449.007 293.903 446.157 293.903C443.992 293.903 442.477 294.986 441.106 297.656V310.5H435.694V298.666C435.694 295.743 433.854 293.903 431.003 293.903C428.839 293.903 427.323 294.986 425.952 297.656V310.5H420.54Z" fill="white"/>
<path d="M472.207 300.434C472.207 293.867 476.681 289.682 483.644 289.682C490.103 289.682 494.396 293.362 494.396 299.063V301.66H477.547C478.268 304.98 481.263 306.928 486.098 306.928C488.804 306.928 491.438 306.387 494.36 305.485L493.819 309.67C491.546 310.608 488.696 311.258 485.376 311.258C477.402 311.258 472.207 307 472.207 300.434ZM489.381 298.413C489.237 295.274 487.252 293.723 483.608 293.723C479.856 293.723 477.691 295.346 477.475 298.413H489.381ZM497.844 310.5V290.295H503.256V294.661C504.844 291.305 507.514 289.682 511.446 289.682C516.606 289.682 519.492 292.532 519.492 297.583V310.5H514.08V298.666C514.08 295.707 512.204 293.903 509.137 293.903C506.576 293.903 504.627 295.13 503.256 297.692V310.5H497.844ZM522.984 299.712C522.984 293.975 527.277 289.682 532.87 289.682C536.261 289.682 539.328 291.269 540.988 293.506V290.295H546.4V307.541C546.4 315.984 539.905 318.618 533.195 318.618C530.164 318.618 527.241 318.077 524.788 316.994L524.211 312.412C527.025 313.639 529.839 314.252 532.653 314.252C537.596 314.252 540.988 312.304 540.988 307.902V305.449C539.256 308.371 536.189 309.959 532.87 309.959C527.314 309.959 522.984 305.521 522.984 299.712ZM528.54 299.892C528.54 303.5 531.03 306.062 534.89 306.062C538.498 306.062 541.168 303.789 541.168 300.362V300.001C541.168 296.068 538.534 293.578 534.89 293.578C531.102 293.578 528.54 296.248 528.54 299.892ZM550.414 290.295H555.934V310.5H550.414V290.295ZM550.45 282.177H555.97V287.697H550.45V282.177ZM560.28 310.5V290.295H565.692V294.661C567.279 291.305 569.949 289.682 573.882 289.682C579.041 289.682 581.928 292.532 581.928 297.583V310.5H576.516V298.666C576.516 295.707 574.639 293.903 571.573 293.903C569.011 293.903 567.063 295.13 565.692 297.692V310.5H560.28ZM585.239 300.434C585.239 293.867 589.713 289.682 596.676 289.682C603.134 289.682 607.428 293.362 607.428 299.063V301.66H590.579C591.3 304.98 594.295 306.928 599.13 306.928C601.836 306.928 604.469 306.387 607.392 305.485L606.851 309.67C604.578 310.608 601.727 311.258 598.408 311.258C590.434 311.258 585.239 307 585.239 300.434ZM602.413 298.413C602.269 295.274 600.284 293.723 596.64 293.723C592.888 293.723 590.723 295.346 590.506 298.413H602.413ZM609.938 300.434C609.938 293.867 614.412 289.682 621.375 289.682C627.834 289.682 632.127 293.362 632.127 299.063V301.66H615.278C616 304.98 618.994 306.928 623.829 306.928C626.535 306.928 629.169 306.387 632.091 305.485L631.55 309.67C629.277 310.608 626.427 311.258 623.107 311.258C615.134 311.258 609.938 307 609.938 300.434ZM627.112 298.413C626.968 295.274 624.983 293.723 621.339 293.723C617.587 293.723 615.422 295.346 615.206 298.413H627.112ZM635.576 310.5V290.295H640.843V295.022C642.467 291.594 645.678 290.007 648.961 290.007C649.466 290.007 649.971 290.043 650.477 290.115V295.455C649.25 295.13 648.095 294.986 647.013 294.986C644.596 294.986 642.503 295.779 640.988 297.295V310.5H635.576ZM653.404 290.295H658.924V310.5H653.404V290.295ZM653.44 282.177H658.96V287.697H653.44V282.177ZM663.27 310.5V290.295H668.682V294.661C670.269 291.305 672.939 289.682 676.872 289.682C682.031 289.682 684.918 292.532 684.918 297.583V310.5H679.506V298.666C679.506 295.707 677.63 293.903 674.563 293.903C672.001 293.903 670.053 295.13 668.682 297.692V310.5H663.27ZM688.409 299.712C688.409 293.975 692.703 289.682 698.295 289.682C701.687 289.682 704.754 291.269 706.413 293.506V290.295H711.825V307.541C711.825 315.984 705.331 318.618 698.62 318.618C695.589 318.618 692.667 318.077 690.213 316.994L689.636 312.412C692.45 313.639 695.265 314.252 698.079 314.252C703.022 314.252 706.413 312.304 706.413 307.902V305.449C704.681 308.371 701.615 309.959 698.295 309.959C692.739 309.959 688.409 305.521 688.409 299.712ZM693.966 299.892C693.966 303.5 696.455 306.062 700.316 306.062C703.924 306.062 706.594 303.789 706.594 300.362V300.001C706.594 296.068 703.96 293.578 700.316 293.578C696.527 293.578 693.966 296.248 693.966 299.892Z" fill="#9E9E9E"/>
<path d="M269.639 375.143V348.083H287.895C294.245 348.083 296.951 352.088 296.951 356.562C296.951 362.335 292.441 365.041 287.895 365.041H275.412V375.143H269.639ZM286.091 360.351C289.699 360.351 291.179 359.232 291.179 356.562C291.179 353.892 289.591 352.774 285.839 352.774H275.412V360.351H286.091ZM300.426 375.143V354.939H305.694V359.665C307.317 356.237 310.529 354.65 313.812 354.65C314.317 354.65 314.822 354.686 315.327 354.758V360.098C314.1 359.773 312.946 359.629 311.863 359.629C309.446 359.629 307.353 360.423 305.838 361.938V375.143H300.426ZM329.051 375.901C321.691 375.901 316.964 371.571 316.964 365.149C316.964 358.619 321.727 354.325 329.051 354.325C336.411 354.325 341.138 358.619 341.138 365.149C341.138 371.571 336.411 375.901 329.051 375.901ZM329.051 371.535C332.912 371.535 335.582 369.046 335.582 365.149C335.582 361.18 332.912 358.655 329.051 358.655C325.191 358.655 322.521 361.18 322.521 365.149C322.521 369.046 325.191 371.535 329.051 371.535ZM353.774 354.325C357.31 354.325 360.377 355.913 362.037 358.691V346.821H367.449V375.143H362.037V371.138C360.124 374.277 357.238 375.901 353.774 375.901C348.002 375.901 343.672 371.427 343.672 365.041C343.672 358.583 347.965 354.325 353.774 354.325ZM355.723 358.619C351.79 358.619 349.228 361.216 349.228 365.113C349.228 369.01 351.79 371.608 355.723 371.608C359.619 371.608 362.217 369.046 362.217 365.221V364.861C362.217 361.108 359.583 358.619 355.723 358.619ZM393.451 354.939V375.143H388.039V370.922C386.487 374.277 383.889 375.901 380.065 375.901C374.905 375.901 372.019 373.051 372.019 368V354.939H377.431V366.917C377.431 369.876 379.307 371.68 382.374 371.68C384.791 371.68 386.667 370.453 388.039 367.927V354.939H393.451ZM409.071 354.325C411.849 354.325 414.302 354.866 416.972 356.093L417.153 360.603C414.339 359.232 412.066 358.655 409.756 358.655C405.174 358.655 402.432 361.036 402.432 365.005C402.432 368.902 405.246 371.427 410.189 371.427C412.715 371.427 415.637 370.742 417.55 369.551L417.189 374.025C414.952 375.288 412.354 375.901 409.107 375.901C401.566 375.901 396.876 371.752 396.876 365.077C396.876 358.438 401.53 354.325 409.071 354.325ZM423.348 368.902V359.088H418.982V354.939H423.456V351.763L428.76 348.083V354.939H438.285V359.088H428.76V367.098C428.76 369.948 430.636 371.427 434.063 371.427C435.29 371.427 437.13 371.247 439.259 370.453L438.537 374.638C436.553 375.468 434.496 375.901 432.404 375.901C426.919 375.901 423.348 372.87 423.348 368.902Z" fill="white"/>
<path d="M464.516 354.325C468.052 354.325 471.119 355.913 472.778 358.691V346.821H478.19V375.143H472.778V371.138C470.866 374.277 467.98 375.901 464.516 375.901C458.743 375.901 454.414 371.427 454.414 365.041C454.414 358.583 458.707 354.325 464.516 354.325ZM466.464 358.619C462.532 358.619 459.97 361.216 459.97 365.113C459.97 369.01 462.532 371.608 466.464 371.608C470.361 371.608 472.959 369.046 472.959 365.221V364.861C472.959 361.108 470.325 358.619 466.464 358.619ZM481.967 365.077C481.967 358.51 486.441 354.325 493.404 354.325C499.863 354.325 504.156 358.005 504.156 363.706V366.304H487.307C488.028 369.623 491.023 371.571 495.858 371.571C498.564 371.571 501.198 371.03 504.12 370.128L503.579 374.314C501.306 375.252 498.455 375.901 495.136 375.901C487.162 375.901 481.967 371.644 481.967 365.077ZM499.141 363.057C498.997 359.918 497.012 358.366 493.368 358.366C489.616 358.366 487.451 359.99 487.235 363.057H499.141ZM506.125 354.939H512.295L518.573 370.381L524.814 354.939L530.84 354.975L521.748 375.143H515.217L506.125 354.939ZM531.542 365.077C531.542 358.51 536.016 354.325 542.979 354.325C549.437 354.325 553.731 358.005 553.731 363.706V366.304H536.881C537.603 369.623 540.598 371.571 545.432 371.571C548.138 371.571 550.772 371.03 553.695 370.128L553.154 374.314C550.881 375.252 548.03 375.901 544.711 375.901C536.737 375.901 531.542 371.644 531.542 365.077ZM548.716 363.057C548.571 359.918 546.587 358.366 542.943 358.366C539.191 358.366 537.026 359.99 536.809 363.057H548.716ZM557.143 346.821H562.555V375.143H557.143V346.821ZM578.052 375.901C570.692 375.901 565.966 371.571 565.966 365.149C565.966 358.619 570.728 354.325 578.052 354.325C585.413 354.325 590.139 358.619 590.139 365.149C590.139 371.571 585.413 375.901 578.052 375.901ZM578.052 371.535C581.913 371.535 584.583 369.046 584.583 365.149C584.583 361.18 581.913 358.655 578.052 358.655C574.192 358.655 571.522 361.18 571.522 365.149C571.522 369.046 574.192 371.535 578.052 371.535ZM607.286 375.901C603.75 375.901 600.683 374.314 599.023 371.535V382.901H593.611V354.939H599.023V359.088C600.936 355.949 603.822 354.325 607.286 354.325C613.058 354.325 617.388 358.799 617.388 365.185C617.388 371.644 613.095 375.901 607.286 375.901ZM605.337 371.608C609.27 371.608 611.832 369.01 611.832 365.113C611.832 361.216 609.27 358.619 605.337 358.619C601.441 358.619 598.843 361.18 598.843 365.005V365.366C598.843 369.118 601.477 371.608 605.337 371.608ZM620.848 375.143V354.939H626.26V359.304C627.811 355.877 630.156 354.325 633.692 354.325C637.697 354.325 640.295 356.237 641.125 359.629C642.712 356.021 645.165 354.325 648.846 354.325C653.753 354.325 656.567 357.212 656.567 362.227V375.143H651.155V363.309C651.155 360.387 649.315 358.547 646.464 358.547C644.3 358.547 642.784 359.629 641.413 362.299V375.143H636.001V363.309C636.001 360.387 634.161 358.547 631.311 358.547C629.146 358.547 627.631 359.629 626.26 362.299V375.143H620.848ZM659.9 365.077C659.9 358.51 664.374 354.325 671.338 354.325C677.796 354.325 682.09 358.005 682.09 363.706V366.304H665.24C665.962 369.623 668.957 371.571 673.791 371.571C676.497 371.571 679.131 371.03 682.054 370.128L681.512 374.314C679.239 375.252 676.389 375.901 673.07 375.901C665.096 375.901 659.9 371.644 659.9 365.077ZM677.075 363.057C676.93 359.918 674.946 358.366 671.302 358.366C667.549 358.366 665.385 359.99 665.168 363.057H677.075ZM685.538 375.143V354.939H690.95V359.304C692.537 355.949 695.207 354.325 699.14 354.325C704.299 354.325 707.186 357.175 707.186 362.227V375.143H701.774V363.309C701.774 360.351 699.898 358.547 696.831 358.547C694.269 358.547 692.321 359.773 690.95 362.335V375.143H685.538ZM713.961 368.902V359.088H709.595V354.939H714.069V351.763L719.373 348.083V354.939H728.898V359.088H719.373V367.098C719.373 369.948 721.249 371.427 724.676 371.427C725.903 371.427 727.743 371.247 729.872 370.453L729.15 374.638C727.166 375.468 725.109 375.901 723.017 375.901C717.533 375.901 713.961 372.87 713.961 368.902Z" fill="#9E9E9E"/>
<path d="M272.273 521.952C271.419 521.952 270.649 521.76 269.964 521.375C269.278 520.978 268.737 520.443 268.34 519.769C267.943 519.096 267.745 518.332 267.745 517.478C267.745 516.636 267.937 515.879 268.322 515.205C268.719 514.532 269.248 514.002 269.909 513.618C270.583 513.221 271.335 513.022 272.164 513.022C272.958 513.022 273.656 513.203 274.257 513.563C274.87 513.924 275.346 514.423 275.682 515.061C276.031 515.698 276.205 516.42 276.205 517.226C276.205 517.346 276.199 517.478 276.187 517.622C276.175 517.755 276.151 517.911 276.115 518.092H268.881V516.739H275.249L274.654 517.262C274.654 516.684 274.552 516.197 274.347 515.8C274.143 515.392 273.854 515.079 273.481 514.862C273.109 514.634 272.658 514.52 272.128 514.52C271.575 514.52 271.088 514.64 270.667 514.88C270.246 515.121 269.922 515.458 269.693 515.891C269.464 516.324 269.35 516.835 269.35 517.424C269.35 518.025 269.471 518.555 269.711 519.012C269.952 519.457 270.294 519.805 270.739 520.058C271.184 520.298 271.695 520.419 272.273 520.419C272.754 520.419 273.193 520.334 273.59 520.166C273.999 519.998 274.347 519.745 274.636 519.408L275.682 520.473C275.273 520.954 274.768 521.321 274.167 521.573C273.578 521.826 272.946 521.952 272.273 521.952ZM281.62 521.952C280.838 521.952 280.129 521.76 279.491 521.375C278.854 520.978 278.349 520.443 277.976 519.769C277.615 519.096 277.435 518.338 277.435 517.496C277.435 516.654 277.615 515.897 277.976 515.223C278.349 514.55 278.848 514.014 279.473 513.618C280.11 513.221 280.826 513.022 281.62 513.022C282.269 513.022 282.847 513.161 283.352 513.437C283.869 513.702 284.284 514.075 284.596 514.556C284.909 515.025 285.084 515.572 285.12 516.197V518.777C285.084 519.39 284.909 519.938 284.596 520.419C284.296 520.9 283.887 521.279 283.37 521.555C282.865 521.82 282.281 521.952 281.62 521.952ZM281.89 520.419C282.696 520.419 283.346 520.148 283.839 519.607C284.332 519.054 284.578 518.35 284.578 517.496C284.578 516.907 284.464 516.396 284.236 515.963C284.019 515.518 283.706 515.175 283.298 514.935C282.889 514.682 282.414 514.556 281.872 514.556C281.331 514.556 280.85 514.682 280.429 514.935C280.02 515.187 279.696 515.536 279.455 515.981C279.227 516.414 279.112 516.913 279.112 517.478C279.112 518.055 279.227 518.567 279.455 519.012C279.696 519.445 280.026 519.787 280.447 520.04C280.868 520.292 281.349 520.419 281.89 520.419ZM284.47 521.772V519.463L284.777 517.37L284.47 515.295V513.203H286.112V521.772H284.47ZM292.444 521.952C291.591 521.952 290.821 521.76 290.135 521.375C289.45 520.978 288.909 520.443 288.512 519.769C288.115 519.096 287.916 518.332 287.916 517.478C287.916 516.636 288.109 515.879 288.494 515.205C288.891 514.532 289.42 514.002 290.081 513.618C290.755 513.221 291.506 513.022 292.336 513.022C293.13 513.022 293.827 513.203 294.429 513.563C295.042 513.924 295.517 514.423 295.854 515.061C296.203 515.698 296.377 516.42 296.377 517.226C296.377 517.346 296.371 517.478 296.359 517.622C296.347 517.755 296.323 517.911 296.287 518.092H289.053V516.739H295.421L294.826 517.262C294.826 516.684 294.723 516.197 294.519 515.8C294.315 515.392 294.026 515.079 293.653 514.862C293.28 514.634 292.829 514.52 292.3 514.52C291.747 514.52 291.26 514.64 290.839 514.88C290.418 515.121 290.093 515.458 289.865 515.891C289.636 516.324 289.522 516.835 289.522 517.424C289.522 518.025 289.642 518.555 289.883 519.012C290.123 519.457 290.466 519.805 290.911 520.058C291.356 520.298 291.867 520.419 292.444 520.419C292.925 520.419 293.364 520.334 293.761 520.166C294.17 519.998 294.519 519.745 294.808 519.408L295.854 520.473C295.445 520.954 294.94 521.321 294.339 521.573C293.749 521.826 293.118 521.952 292.444 521.952ZM298.147 521.772V508.891H299.771V521.772H298.147ZM302.147 521.772V508.891H303.77V521.772H302.147ZM306.146 521.772V508.891H307.769V521.772H306.146ZM311.371 521.772V511.922C311.371 511.284 311.51 510.731 311.786 510.262C312.063 509.781 312.442 509.402 312.923 509.126C313.416 508.849 313.987 508.711 314.637 508.711C315.13 508.711 315.557 508.795 315.918 508.963C316.278 509.132 316.609 509.378 316.91 509.703L315.845 510.749C315.689 510.581 315.515 510.455 315.322 510.37C315.13 510.274 314.895 510.226 314.619 510.226C314.102 510.226 313.699 510.376 313.41 510.677C313.133 510.978 312.995 511.393 312.995 511.922V521.772H311.371ZM309.261 514.682V513.203H315.719V514.682H309.261ZM320.501 521.952C319.719 521.952 319.01 521.76 318.372 521.375C317.735 520.978 317.23 520.443 316.857 519.769C316.496 519.096 316.316 518.338 316.316 517.496C316.316 516.654 316.496 515.897 316.857 515.223C317.23 514.55 317.729 514.014 318.354 513.618C318.992 513.221 319.707 513.022 320.501 513.022C321.15 513.022 321.728 513.161 322.233 513.437C322.75 513.702 323.165 514.075 323.478 514.556C323.79 515.025 323.965 515.572 324.001 516.197V518.777C323.965 519.39 323.79 519.938 323.478 520.419C323.177 520.9 322.768 521.279 322.251 521.555C321.746 521.82 321.162 521.952 320.501 521.952ZM320.772 520.419C321.577 520.419 322.227 520.148 322.72 519.607C323.213 519.054 323.46 518.35 323.46 517.496C323.46 516.907 323.345 516.396 323.117 515.963C322.9 515.518 322.588 515.175 322.179 514.935C321.77 514.682 321.295 514.556 320.754 514.556C320.212 514.556 319.731 514.682 319.31 514.935C318.901 515.187 318.577 515.536 318.336 515.981C318.108 516.414 317.993 516.913 317.993 517.478C317.993 518.055 318.108 518.567 318.336 519.012C318.577 519.445 318.907 519.787 319.328 520.04C319.749 520.292 320.23 520.419 320.772 520.419ZM323.351 521.772V519.463L323.658 517.37L323.351 515.295V513.203H324.993V521.772H323.351ZM330.802 521.952C330.105 521.952 329.473 521.796 328.908 521.483C328.355 521.158 327.922 520.713 327.609 520.148C327.297 519.583 327.14 518.927 327.14 518.182V513.203H328.764V518.11C328.764 518.579 328.842 518.987 328.998 519.336C329.167 519.673 329.407 519.932 329.72 520.112C330.033 520.292 330.399 520.383 330.82 520.383C331.458 520.383 331.957 520.184 332.318 519.787C332.679 519.378 332.859 518.819 332.859 518.11V513.203H334.483V518.182C334.483 518.927 334.326 519.583 334.014 520.148C333.701 520.713 333.268 521.158 332.715 521.483C332.173 521.796 331.536 521.952 330.802 521.952ZM339.383 521.952C338.902 521.952 338.445 521.892 338.012 521.772C337.591 521.639 337.2 521.459 336.839 521.23C336.478 520.99 336.166 520.707 335.901 520.383L336.947 519.336C337.26 519.721 337.621 520.01 338.03 520.202C338.439 520.383 338.896 520.473 339.401 520.473C339.906 520.473 340.297 520.389 340.573 520.22C340.85 520.04 340.988 519.793 340.988 519.481C340.988 519.168 340.874 518.927 340.645 518.759C340.429 518.579 340.146 518.434 339.798 518.326C339.449 518.206 339.076 518.092 338.679 517.983C338.294 517.863 337.927 517.713 337.579 517.532C337.23 517.352 336.941 517.105 336.713 516.793C336.496 516.48 336.388 516.065 336.388 515.548C336.388 515.031 336.514 514.586 336.767 514.213C337.019 513.828 337.368 513.533 337.813 513.329C338.27 513.124 338.817 513.022 339.455 513.022C340.128 513.022 340.724 513.143 341.241 513.383C341.77 513.612 342.203 513.96 342.54 514.429L341.493 515.476C341.253 515.163 340.952 514.922 340.591 514.754C340.243 514.586 339.846 514.502 339.401 514.502C338.932 514.502 338.571 514.586 338.318 514.754C338.078 514.91 337.957 515.133 337.957 515.422C337.957 515.71 338.066 515.933 338.282 516.089C338.499 516.245 338.781 516.378 339.13 516.486C339.491 516.594 339.864 516.708 340.249 516.829C340.633 516.937 341 517.087 341.349 517.28C341.698 517.472 341.98 517.731 342.197 518.055C342.425 518.38 342.54 518.807 342.54 519.336C342.54 520.142 342.251 520.779 341.674 521.249C341.108 521.718 340.345 521.952 339.383 521.952ZM345.674 521.772V509.613H347.298V521.772H345.674ZM343.564 514.682V513.203H349.409V514.682H343.564ZM356.363 523.395C355.545 523.395 354.776 523.245 354.054 522.944C353.345 522.656 352.725 522.247 352.196 521.718C351.667 521.188 351.252 520.569 350.951 519.859C350.651 519.138 350.5 518.356 350.5 517.514C350.5 516.672 350.651 515.897 350.951 515.187C351.264 514.465 351.691 513.84 352.232 513.311C352.773 512.77 353.405 512.349 354.126 512.048C354.86 511.747 355.642 511.597 356.471 511.597C357.578 511.597 358.552 511.85 359.394 512.355C360.248 512.86 360.915 513.551 361.396 514.429C361.889 515.307 362.136 516.318 362.136 517.46C362.136 517.977 362.082 518.446 361.974 518.867C361.877 519.276 361.715 519.661 361.487 520.022L360.098 519.95C360.266 519.709 360.398 519.469 360.494 519.228C360.603 518.975 360.681 518.699 360.729 518.398C360.777 518.098 360.801 517.755 360.801 517.37C360.801 516.42 360.627 515.614 360.278 514.953C359.941 514.279 359.448 513.768 358.799 513.419C358.161 513.058 357.392 512.878 356.49 512.878C355.575 512.878 354.77 513.07 354.072 513.455C353.387 513.84 352.851 514.381 352.467 515.079C352.094 515.764 351.907 516.582 351.907 517.532C351.907 518.47 352.088 519.282 352.449 519.968C352.821 520.653 353.345 521.188 354.018 521.573C354.692 521.946 355.461 522.132 356.327 522.132C356.965 522.132 357.536 522.042 358.041 521.862C358.546 521.693 358.991 521.435 359.376 521.086L360.278 522.006C359.749 522.463 359.153 522.806 358.492 523.034C357.83 523.275 357.121 523.395 356.363 523.395ZM356.039 520.148C355.569 520.148 355.143 520.034 354.758 519.805C354.385 519.565 354.078 519.246 353.838 518.849C353.609 518.452 353.495 518.007 353.495 517.514C353.495 517.021 353.609 516.576 353.838 516.179C354.078 515.77 354.385 515.452 354.758 515.223C355.143 514.983 355.569 514.862 356.039 514.862C356.616 514.862 357.085 515.007 357.446 515.295C357.818 515.572 358.005 515.981 358.005 516.522V518.488C358.005 519.018 357.824 519.426 357.464 519.715C357.103 520.004 356.628 520.148 356.039 520.148ZM356.111 519.012C356.544 519.012 356.886 518.873 357.139 518.597C357.404 518.308 357.536 517.941 357.536 517.496C357.536 517.039 357.404 516.672 357.139 516.396C356.886 516.119 356.544 515.981 356.111 515.981C355.714 515.981 355.377 516.125 355.1 516.414C354.836 516.69 354.704 517.051 354.704 517.496C354.704 517.941 354.836 518.308 355.1 518.597C355.365 518.873 355.702 519.012 356.111 519.012ZM358.131 520.022V518.957H361.487V520.022H358.131ZM357.626 520.022V518.687L357.806 517.424L357.626 516.215V514.971H358.799V520.022H357.626ZM367.819 525.542C366.941 525.542 366.159 525.38 365.473 525.055C364.8 524.73 364.259 524.273 363.85 523.684L364.896 522.62C365.245 523.065 365.66 523.401 366.141 523.63C366.622 523.87 367.193 523.991 367.855 523.991C368.733 523.991 369.424 523.756 369.929 523.287C370.446 522.83 370.705 522.211 370.705 521.429V519.3L370.994 517.37L370.705 515.458V513.203H372.329V521.429C372.329 522.247 372.136 522.962 371.751 523.576C371.379 524.189 370.849 524.67 370.164 525.019C369.49 525.368 368.709 525.542 367.819 525.542ZM367.819 521.627C367.037 521.627 366.333 521.441 365.708 521.068C365.095 520.695 364.608 520.184 364.247 519.535C363.886 518.873 363.706 518.134 363.706 517.316C363.706 516.498 363.886 515.77 364.247 515.133C364.608 514.484 365.095 513.972 365.708 513.6C366.333 513.215 367.037 513.022 367.819 513.022C368.492 513.022 369.087 513.155 369.605 513.419C370.122 513.684 370.531 514.057 370.831 514.538C371.144 515.007 371.312 515.56 371.336 516.197V518.47C371.3 519.096 371.126 519.649 370.813 520.13C370.513 520.599 370.104 520.966 369.587 521.23C369.069 521.495 368.48 521.627 367.819 521.627ZM368.143 520.094C368.673 520.094 369.136 519.98 369.532 519.751C369.941 519.523 370.254 519.204 370.471 518.795C370.687 518.374 370.795 517.887 370.795 517.334C370.795 516.781 370.681 516.3 370.452 515.891C370.236 515.47 369.929 515.145 369.532 514.916C369.136 514.676 368.667 514.556 368.125 514.556C367.584 514.556 367.109 514.676 366.7 514.916C366.291 515.145 365.967 515.47 365.726 515.891C365.497 516.3 365.383 516.775 365.383 517.316C365.383 517.857 365.497 518.338 365.726 518.759C365.967 519.18 366.291 519.511 366.7 519.751C367.121 519.98 367.602 520.094 368.143 520.094ZM374.712 521.772V513.203H376.335V521.772H374.712ZM380.503 521.772V516.594C380.503 515.957 380.304 515.458 379.907 515.097C379.522 514.724 379.035 514.538 378.446 514.538C378.049 514.538 377.694 514.622 377.382 514.79C377.069 514.959 376.816 515.193 376.624 515.494C376.432 515.794 376.335 516.155 376.335 516.576L375.668 516.251C375.668 515.602 375.806 515.037 376.083 514.556C376.371 514.075 376.762 513.702 377.255 513.437C377.748 513.161 378.302 513.022 378.915 513.022C379.516 513.022 380.058 513.155 380.539 513.419C381.032 513.684 381.417 514.057 381.693 514.538C381.982 515.019 382.126 515.59 382.126 516.251V521.772H380.503ZM386.293 521.772V516.594C386.293 515.957 386.095 515.458 385.698 515.097C385.313 514.724 384.832 514.538 384.255 514.538C383.858 514.538 383.497 514.622 383.173 514.79C382.86 514.959 382.607 515.193 382.415 515.494C382.222 515.794 382.126 516.155 382.126 516.576L381.206 516.251C381.242 515.59 381.417 515.025 381.729 514.556C382.054 514.075 382.469 513.702 382.974 513.437C383.479 513.161 384.032 513.022 384.634 513.022C385.259 513.022 385.818 513.155 386.311 513.419C386.805 513.684 387.195 514.057 387.484 514.538C387.785 515.019 387.935 515.596 387.935 516.269V521.772H386.293ZM393.788 521.952C393.007 521.952 392.297 521.76 391.66 521.375C391.022 520.978 390.517 520.443 390.144 519.769C389.784 519.096 389.603 518.338 389.603 517.496C389.603 516.654 389.784 515.897 390.144 515.223C390.517 514.55 391.016 514.014 391.642 513.618C392.279 513.221 392.995 513.022 393.788 513.022C394.438 513.022 395.015 513.161 395.52 513.437C396.037 513.702 396.452 514.075 396.765 514.556C397.078 515.025 397.252 515.572 397.288 516.197V518.777C397.252 519.39 397.078 519.938 396.765 520.419C396.464 520.9 396.056 521.279 395.538 521.555C395.033 521.82 394.45 521.952 393.788 521.952ZM394.059 520.419C394.865 520.419 395.514 520.148 396.007 519.607C396.5 519.054 396.747 518.35 396.747 517.496C396.747 516.907 396.633 516.396 396.404 515.963C396.188 515.518 395.875 515.175 395.466 514.935C395.057 514.682 394.582 514.556 394.041 514.556C393.5 514.556 393.019 514.682 392.598 514.935C392.189 515.187 391.864 515.536 391.624 515.981C391.395 516.414 391.281 516.913 391.281 517.478C391.281 518.055 391.395 518.567 391.624 519.012C391.864 519.445 392.195 519.787 392.616 520.04C393.037 520.292 393.518 520.419 394.059 520.419ZM396.639 521.772V519.463L396.945 517.37L396.639 515.295V513.203H398.28V521.772H396.639ZM400.662 521.772V513.203H402.286V521.772H400.662ZM401.474 511.489C401.173 511.489 400.927 511.393 400.734 511.2C400.542 510.996 400.446 510.743 400.446 510.443C400.446 510.154 400.542 509.913 400.734 509.721C400.927 509.516 401.173 509.414 401.474 509.414C401.775 509.414 402.021 509.516 402.214 509.721C402.406 509.913 402.502 510.154 402.502 510.443C402.502 510.743 402.406 510.996 402.214 511.2C402.021 511.393 401.775 511.489 401.474 511.489ZM404.679 521.772V508.891H406.302V521.772H404.679ZM410.103 521.952C409.766 521.952 409.483 521.838 409.255 521.609C409.038 521.369 408.93 521.086 408.93 520.761C408.93 520.425 409.038 520.148 409.255 519.932C409.483 519.703 409.766 519.589 410.103 519.589C410.44 519.589 410.716 519.703 410.933 519.932C411.161 520.148 411.275 520.425 411.275 520.761C411.275 521.086 411.161 521.369 410.933 521.609C410.716 521.838 410.44 521.952 410.103 521.952ZM417.472 521.952C416.63 521.952 415.867 521.754 415.181 521.357C414.508 520.96 413.973 520.425 413.576 519.751C413.191 519.066 412.998 518.308 412.998 517.478C412.998 516.636 413.191 515.879 413.576 515.205C413.973 514.532 414.508 514.002 415.181 513.618C415.867 513.221 416.63 513.022 417.472 513.022C418.134 513.022 418.747 513.149 419.312 513.401C419.878 513.642 420.365 513.996 420.774 514.465L419.691 515.548C419.427 515.235 419.102 515.001 418.717 514.844C418.344 514.676 417.929 514.592 417.472 514.592C416.931 514.592 416.45 514.718 416.029 514.971C415.608 515.211 415.277 515.548 415.037 515.981C414.796 516.414 414.676 516.913 414.676 517.478C414.676 518.043 414.796 518.543 415.037 518.975C415.277 519.408 415.608 519.751 416.029 520.004C416.45 520.256 416.931 520.383 417.472 520.383C417.929 520.383 418.344 520.304 418.717 520.148C419.102 519.98 419.433 519.739 419.709 519.426L420.774 520.509C420.377 520.966 419.89 521.321 419.312 521.573C418.747 521.826 418.134 521.952 417.472 521.952ZM426.122 521.952C425.28 521.952 424.523 521.754 423.849 521.357C423.176 520.96 422.641 520.425 422.244 519.751C421.847 519.066 421.648 518.302 421.648 517.46C421.648 516.63 421.847 515.885 422.244 515.223C422.641 514.55 423.176 514.014 423.849 513.618C424.523 513.221 425.28 513.022 426.122 513.022C426.952 513.022 427.704 513.221 428.377 513.618C429.063 514.002 429.604 514.532 430.001 515.205C430.398 515.879 430.596 516.63 430.596 517.46C430.596 518.302 430.398 519.066 430.001 519.751C429.604 520.425 429.063 520.96 428.377 521.357C427.704 521.754 426.952 521.952 426.122 521.952ZM426.122 520.383C426.664 520.383 427.145 520.256 427.566 520.004C427.986 519.751 428.317 519.408 428.558 518.975C428.798 518.53 428.919 518.025 428.919 517.46C428.919 516.907 428.792 516.414 428.54 515.981C428.299 515.548 427.968 515.211 427.548 514.971C427.139 514.718 426.664 514.592 426.122 514.592C425.581 514.592 425.1 514.718 424.679 514.971C424.258 515.211 423.927 515.548 423.687 515.981C423.446 516.414 423.326 516.907 423.326 517.46C423.326 518.025 423.446 518.53 423.687 518.975C423.927 519.408 424.258 519.751 424.679 520.004C425.1 520.256 425.581 520.383 426.122 520.383ZM432.426 521.772V513.203H434.049V521.772H432.426ZM438.216 521.772V516.594C438.216 515.957 438.018 515.458 437.621 515.097C437.236 514.724 436.749 514.538 436.16 514.538C435.763 514.538 435.408 514.622 435.096 514.79C434.783 514.959 434.53 515.193 434.338 515.494C434.145 515.794 434.049 516.155 434.049 516.576L433.382 516.251C433.382 515.602 433.52 515.037 433.797 514.556C434.085 514.075 434.476 513.702 434.969 513.437C435.462 513.161 436.016 513.022 436.629 513.022C437.23 513.022 437.772 513.155 438.253 513.419C438.746 513.684 439.131 514.057 439.407 514.538C439.696 515.019 439.84 515.59 439.84 516.251V521.772H438.216ZM444.007 521.772V516.594C444.007 515.957 443.809 515.458 443.412 515.097C443.027 514.724 442.546 514.538 441.969 514.538C441.572 514.538 441.211 514.622 440.886 514.79C440.574 514.959 440.321 515.193 440.129 515.494C439.936 515.794 439.84 516.155 439.84 516.576L438.92 516.251C438.956 515.59 439.131 515.025 439.443 514.556C439.768 514.075 440.183 513.702 440.688 513.437C441.193 513.161 441.746 513.022 442.348 513.022C442.973 513.022 443.532 513.155 444.025 513.419C444.518 513.684 444.909 514.057 445.198 514.538C445.499 515.019 445.649 515.596 445.649 516.269V521.772H444.007Z" fill="#9E9E9E"/>
<path d="M467.369 516.468V515.007H475.018V516.468H467.369ZM470.454 511.723H471.952V519.751H470.454V511.723ZM476.678 520.743L481.296 515.873C481.765 515.392 482.132 514.977 482.397 514.628C482.661 514.267 482.848 513.936 482.956 513.636C483.076 513.335 483.136 513.022 483.136 512.698C483.136 512.06 482.932 511.561 482.523 511.2C482.114 510.839 481.585 510.659 480.935 510.659C480.298 510.659 479.739 510.815 479.258 511.128C478.777 511.429 478.35 511.898 477.977 512.535L476.786 511.543C477.279 510.725 477.875 510.112 478.572 509.703C479.27 509.282 480.075 509.072 480.989 509.072C481.759 509.072 482.427 509.222 482.992 509.523C483.569 509.823 484.014 510.244 484.327 510.785C484.64 511.327 484.796 511.958 484.796 512.68C484.796 513.197 484.73 513.66 484.597 514.069C484.477 514.477 484.255 514.898 483.93 515.331C483.617 515.752 483.178 516.257 482.613 516.847L478.879 520.689L476.678 520.743ZM476.678 521.772V520.743L478.121 520.256H485.085V521.772H476.678ZM490.298 521.952C489.481 521.952 488.735 521.802 488.061 521.501C487.4 521.188 486.841 520.737 486.384 520.148L487.538 518.994C487.815 519.414 488.194 519.751 488.675 520.004C489.156 520.244 489.691 520.365 490.28 520.365C490.834 520.365 491.309 520.262 491.706 520.058C492.114 519.841 492.433 519.541 492.662 519.156C492.902 518.771 493.022 518.326 493.022 517.821C493.022 517.304 492.902 516.859 492.662 516.486C492.433 516.101 492.108 515.806 491.687 515.602C491.267 515.398 490.767 515.295 490.19 515.295C489.974 515.295 489.757 515.313 489.541 515.349C489.324 515.373 489.114 515.416 488.909 515.476L489.631 514.502C489.859 514.393 490.106 514.309 490.371 514.249C490.635 514.189 490.9 514.159 491.164 514.159C491.838 514.159 492.439 514.315 492.968 514.628C493.51 514.941 493.936 515.379 494.249 515.945C494.574 516.51 494.736 517.165 494.736 517.911C494.736 518.705 494.544 519.408 494.159 520.022C493.786 520.623 493.269 521.098 492.608 521.447C491.946 521.784 491.176 521.952 490.298 521.952ZM488.909 515.476V514.447L492.571 510.28L494.592 510.262L490.822 514.538L488.909 515.476ZM486.979 510.767V509.252H494.592V510.262L493.113 510.767H486.979ZM496.145 517.46L500.709 509.252H502.621L497.967 517.46H496.145ZM496.145 518.506V517.46L496.867 516.991H505.742V518.506H496.145ZM502.26 521.772V513.491H503.938V521.772H502.26ZM512.736 521.772L516.506 516.63L517.119 516.306C516.975 516.546 516.801 516.757 516.596 516.937C516.392 517.117 516.139 517.256 515.839 517.352C515.55 517.448 515.195 517.496 514.774 517.496C514.053 517.496 513.385 517.322 512.772 516.973C512.17 516.624 511.689 516.143 511.329 515.53C510.968 514.904 510.787 514.201 510.787 513.419C510.787 512.613 510.986 511.886 511.383 511.236C511.78 510.575 512.309 510.052 512.97 509.667C513.632 509.27 514.365 509.072 515.171 509.072C515.989 509.072 516.729 509.264 517.39 509.649C518.051 510.034 518.575 510.551 518.959 511.2C519.344 511.838 519.537 512.559 519.537 513.365C519.537 514.471 519.152 515.572 518.382 516.666L514.702 521.772H512.736ZM515.171 516.161C515.676 516.161 516.127 516.041 516.524 515.8C516.933 515.548 517.252 515.217 517.48 514.808C517.721 514.387 517.841 513.924 517.841 513.419C517.841 512.89 517.721 512.421 517.48 512.012C517.252 511.591 516.933 511.26 516.524 511.02C516.127 510.779 515.676 510.659 515.171 510.659C514.666 510.659 514.209 510.779 513.8 511.02C513.403 511.26 513.084 511.591 512.844 512.012C512.603 512.421 512.483 512.89 512.483 513.419C512.483 513.936 512.603 514.399 512.844 514.808C513.084 515.217 513.409 515.548 513.818 515.8C514.227 516.041 514.678 516.161 515.171 516.161ZM526.22 521.952C525.282 521.952 524.422 521.687 523.64 521.158C522.87 520.629 522.257 519.883 521.8 518.921C521.343 517.947 521.114 516.805 521.114 515.494C521.114 514.183 521.337 513.046 521.782 512.084C522.239 511.122 522.852 510.382 523.622 509.865C524.392 509.336 525.24 509.072 526.166 509.072C527.116 509.072 527.976 509.336 528.745 509.865C529.515 510.382 530.122 511.122 530.567 512.084C531.024 513.046 531.253 514.189 531.253 515.512C531.253 516.823 531.024 517.965 530.567 518.939C530.122 519.902 529.515 520.647 528.745 521.176C527.988 521.693 527.146 521.952 526.22 521.952ZM526.184 520.347C526.845 520.347 527.422 520.166 527.915 519.805C528.421 519.432 528.817 518.885 529.106 518.164C529.395 517.442 529.539 516.552 529.539 515.494C529.539 514.435 529.395 513.551 529.106 512.842C528.817 512.12 528.421 511.579 527.915 511.218C527.41 510.845 526.827 510.659 526.166 510.659C525.516 510.659 524.939 510.845 524.434 511.218C523.929 511.579 523.532 512.12 523.243 512.842C522.966 513.551 522.828 514.435 522.828 515.494C522.828 516.552 522.966 517.442 523.243 518.164C523.532 518.885 523.929 519.432 524.434 519.805C524.939 520.166 525.522 520.347 526.184 520.347ZM532.665 520.743L537.284 515.873C537.753 515.392 538.119 514.977 538.384 514.628C538.649 514.267 538.835 513.936 538.943 513.636C539.064 513.335 539.124 513.022 539.124 512.698C539.124 512.06 538.919 511.561 538.51 511.2C538.101 510.839 537.572 510.659 536.923 510.659C536.285 510.659 535.726 510.815 535.245 511.128C534.764 511.429 534.337 511.898 533.964 512.535L532.774 511.543C533.267 510.725 533.862 510.112 534.56 509.703C535.257 509.282 536.063 509.072 536.977 509.072C537.747 509.072 538.414 509.222 538.979 509.523C539.557 509.823 540.002 510.244 540.314 510.785C540.627 511.327 540.783 511.958 540.783 512.68C540.783 513.197 540.717 513.66 540.585 514.069C540.465 514.477 540.242 514.898 539.917 515.331C539.605 515.752 539.166 516.257 538.6 516.847L534.866 520.689L532.665 520.743ZM532.665 521.772V520.743L534.109 520.256H541.072V521.772H532.665ZM550.038 521.952C549.22 521.952 548.475 521.802 547.801 521.501C547.14 521.188 546.581 520.737 546.124 520.148L547.278 518.994C547.555 519.414 547.934 519.751 548.415 520.004C548.896 520.244 549.431 520.365 550.02 520.365C550.573 520.365 551.049 520.262 551.445 520.058C551.854 519.841 552.173 519.541 552.402 519.156C552.642 518.771 552.762 518.326 552.762 517.821C552.762 517.304 552.642 516.859 552.402 516.486C552.173 516.101 551.848 515.806 551.427 515.602C551.006 515.398 550.507 515.295 549.93 515.295C549.714 515.295 549.497 515.313 549.281 515.349C549.064 515.373 548.854 515.416 548.649 515.476L549.371 514.502C549.599 514.393 549.846 514.309 550.11 514.249C550.375 514.189 550.64 514.159 550.904 514.159C551.578 514.159 552.179 514.315 552.708 514.628C553.249 514.941 553.676 515.379 553.989 515.945C554.314 516.51 554.476 517.165 554.476 517.911C554.476 518.705 554.284 519.408 553.899 520.022C553.526 520.623 553.009 521.098 552.347 521.447C551.686 521.784 550.916 521.952 550.038 521.952ZM548.649 515.476V514.447L552.311 510.28L554.332 510.262L550.561 514.538L548.649 515.476ZM546.719 510.767V509.252H554.332V510.262L552.853 510.767H546.719ZM560.25 521.952C559.421 521.952 558.687 521.796 558.05 521.483C557.424 521.17 556.937 520.737 556.588 520.184C556.24 519.631 556.065 519.006 556.065 518.308C556.065 517.743 556.173 517.226 556.39 516.757C556.606 516.288 556.925 515.891 557.346 515.566C557.767 515.229 558.26 514.989 558.825 514.844L558.879 515.331C558.398 515.199 557.989 514.989 557.653 514.7C557.316 514.399 557.057 514.051 556.877 513.654C556.709 513.245 556.624 512.812 556.624 512.355C556.624 511.705 556.781 511.134 557.093 510.641C557.406 510.148 557.833 509.763 558.374 509.486C558.928 509.198 559.553 509.053 560.25 509.053C560.96 509.053 561.585 509.198 562.127 509.486C562.668 509.763 563.095 510.148 563.407 510.641C563.72 511.134 563.877 511.705 563.877 512.355C563.877 512.812 563.786 513.245 563.606 513.654C563.438 514.051 563.185 514.399 562.848 514.7C562.524 514.989 562.121 515.199 561.64 515.331L561.676 514.844C562.253 514.989 562.746 515.229 563.155 515.566C563.576 515.891 563.895 516.288 564.111 516.757C564.34 517.226 564.454 517.743 564.454 518.308C564.454 519.006 564.279 519.631 563.931 520.184C563.582 520.737 563.089 521.17 562.451 521.483C561.826 521.796 561.092 521.952 560.25 521.952ZM560.25 520.419C560.756 520.419 561.195 520.322 561.567 520.13C561.952 519.926 562.253 519.649 562.469 519.3C562.698 518.951 562.812 518.549 562.812 518.092C562.812 517.647 562.698 517.25 562.469 516.901C562.253 516.552 561.952 516.281 561.567 516.089C561.195 515.885 560.756 515.782 560.25 515.782C559.757 515.782 559.318 515.885 558.934 516.089C558.549 516.281 558.242 516.552 558.014 516.901C557.797 517.25 557.689 517.647 557.689 518.092C557.689 518.549 557.797 518.951 558.014 519.3C558.242 519.649 558.549 519.926 558.934 520.13C559.318 520.322 559.757 520.419 560.25 520.419ZM560.25 514.465C560.852 514.465 561.345 514.279 561.73 513.906C562.115 513.533 562.307 513.052 562.307 512.463C562.307 511.886 562.115 511.417 561.73 511.056C561.345 510.683 560.852 510.497 560.25 510.497C559.661 510.497 559.174 510.683 558.789 511.056C558.404 511.417 558.212 511.886 558.212 512.463C558.212 513.052 558.404 513.533 558.789 513.906C559.174 514.279 559.661 514.465 560.25 514.465ZM570.295 521.952C569.465 521.952 568.72 521.76 568.058 521.375C567.409 520.99 566.892 520.473 566.507 519.823C566.122 519.174 565.93 518.452 565.93 517.659C565.93 516.552 566.314 515.452 567.084 514.357L570.764 509.252H572.731L568.96 514.393L568.347 514.718C568.491 514.465 568.666 514.255 568.87 514.087C569.075 513.906 569.327 513.768 569.628 513.672C569.928 513.575 570.283 513.527 570.692 513.527C571.426 513.527 572.087 513.702 572.677 514.051C573.278 514.399 573.759 514.88 574.12 515.494C574.493 516.095 574.679 516.799 574.679 517.604C574.679 518.398 574.481 519.126 574.084 519.787C573.699 520.449 573.17 520.978 572.496 521.375C571.835 521.76 571.101 521.952 570.295 521.952ZM570.295 520.365C570.8 520.365 571.251 520.244 571.648 520.004C572.057 519.751 572.376 519.42 572.604 519.012C572.845 518.591 572.965 518.122 572.965 517.604C572.965 517.087 572.845 516.624 572.604 516.215C572.376 515.794 572.057 515.464 571.648 515.223C571.251 514.983 570.8 514.862 570.295 514.862C569.79 514.862 569.333 514.983 568.924 515.223C568.527 515.464 568.209 515.794 567.968 516.215C567.74 516.624 567.625 517.087 567.625 517.604C567.625 518.122 567.74 518.591 567.968 519.012C568.209 519.432 568.527 519.763 568.924 520.004C569.333 520.244 569.79 520.365 570.295 520.365ZM585.096 521.952C584.158 521.952 583.298 521.687 582.517 521.158C581.747 520.629 581.134 519.883 580.677 518.921C580.22 517.947 579.991 516.805 579.991 515.494C579.991 514.183 580.214 513.046 580.659 512.084C581.116 511.122 581.729 510.382 582.499 509.865C583.268 509.336 584.116 509.072 585.042 509.072C585.992 509.072 586.852 509.336 587.622 509.865C588.392 510.382 588.999 511.122 589.444 512.084C589.901 513.046 590.13 514.189 590.13 515.512C590.13 516.823 589.901 517.965 589.444 518.939C588.999 519.902 588.392 520.647 587.622 521.176C586.864 521.693 586.022 521.952 585.096 521.952ZM585.06 520.347C585.722 520.347 586.299 520.166 586.792 519.805C587.297 519.432 587.694 518.885 587.983 518.164C588.271 517.442 588.416 516.552 588.416 515.494C588.416 514.435 588.271 513.551 587.983 512.842C587.694 512.12 587.297 511.579 586.792 511.218C586.287 510.845 585.704 510.659 585.042 510.659C584.393 510.659 583.816 510.845 583.31 511.218C582.805 511.579 582.408 512.12 582.12 512.842C581.843 513.551 581.705 514.435 581.705 515.494C581.705 516.552 581.843 517.442 582.12 518.164C582.408 518.885 582.805 519.432 583.31 519.805C583.816 520.166 584.399 520.347 585.06 520.347ZM595.943 521.952C595.113 521.952 594.379 521.796 593.742 521.483C593.117 521.17 592.63 520.737 592.281 520.184C591.932 519.631 591.758 519.006 591.758 518.308C591.758 517.743 591.866 517.226 592.082 516.757C592.299 516.288 592.618 515.891 593.038 515.566C593.459 515.229 593.952 514.989 594.518 514.844L594.572 515.331C594.091 515.199 593.682 514.989 593.345 514.7C593.008 514.399 592.75 514.051 592.569 513.654C592.401 513.245 592.317 512.812 592.317 512.355C592.317 511.705 592.473 511.134 592.786 510.641C593.099 510.148 593.526 509.763 594.067 509.486C594.62 509.198 595.245 509.053 595.943 509.053C596.652 509.053 597.278 509.198 597.819 509.486C598.36 509.763 598.787 510.148 599.1 510.641C599.413 511.134 599.569 511.705 599.569 512.355C599.569 512.812 599.479 513.245 599.298 513.654C599.13 514.051 598.877 514.399 598.541 514.7C598.216 514.989 597.813 515.199 597.332 515.331L597.368 514.844C597.945 514.989 598.438 515.229 598.847 515.566C599.268 515.891 599.587 516.288 599.803 516.757C600.032 517.226 600.146 517.743 600.146 518.308C600.146 519.006 599.972 519.631 599.623 520.184C599.274 520.737 598.781 521.17 598.144 521.483C597.518 521.796 596.785 521.952 595.943 521.952ZM595.943 520.419C596.448 520.419 596.887 520.322 597.26 520.13C597.645 519.926 597.945 519.649 598.162 519.3C598.39 518.951 598.505 518.549 598.505 518.092C598.505 517.647 598.39 517.25 598.162 516.901C597.945 516.552 597.645 516.281 597.26 516.089C596.887 515.885 596.448 515.782 595.943 515.782C595.45 515.782 595.011 515.885 594.626 516.089C594.241 516.281 593.934 516.552 593.706 516.901C593.489 517.25 593.381 517.647 593.381 518.092C593.381 518.549 593.489 518.951 593.706 519.3C593.934 519.649 594.241 519.926 594.626 520.13C595.011 520.322 595.45 520.419 595.943 520.419ZM595.943 514.465C596.544 514.465 597.037 514.279 597.422 513.906C597.807 513.533 597.999 513.052 597.999 512.463C597.999 511.886 597.807 511.417 597.422 511.056C597.037 510.683 596.544 510.497 595.943 510.497C595.354 510.497 594.867 510.683 594.482 511.056C594.097 511.417 593.904 511.886 593.904 512.463C593.904 513.052 594.097 513.533 594.482 513.906C594.867 514.279 595.354 514.465 595.943 514.465ZM602.915 521.772L607.605 510.244L609.283 510.298L604.701 521.772H602.915ZM600.949 510.767V509.252H609.283V510.298L608.544 510.767H600.949ZM613.936 521.952C613.118 521.952 612.372 521.802 611.699 521.501C611.037 521.188 610.478 520.737 610.021 520.148L611.176 518.994C611.452 519.414 611.831 519.751 612.312 520.004C612.793 520.244 613.328 520.365 613.918 520.365C614.471 520.365 614.946 520.262 615.343 520.058C615.752 519.841 616.071 519.541 616.299 519.156C616.54 518.771 616.66 518.326 616.66 517.821C616.66 517.304 616.54 516.859 616.299 516.486C616.071 516.101 615.746 515.806 615.325 515.602C614.904 515.398 614.405 515.295 613.828 515.295C613.611 515.295 613.395 515.313 613.178 515.349C612.962 515.373 612.751 515.416 612.547 515.476L613.268 514.502C613.497 514.393 613.743 514.309 614.008 514.249C614.273 514.189 614.537 514.159 614.802 514.159C615.475 514.159 616.077 514.315 616.606 514.628C617.147 514.941 617.574 515.379 617.887 515.945C618.211 516.51 618.374 517.165 618.374 517.911C618.374 518.705 618.181 519.408 617.796 520.022C617.424 520.623 616.906 521.098 616.245 521.447C615.583 521.784 614.814 521.952 613.936 521.952ZM612.547 515.476V514.447L616.209 510.28L618.229 510.262L614.459 514.538L612.547 515.476ZM610.616 510.767V509.252H618.229V510.262L616.75 510.767H610.616Z" fill="#9E9E9E"/>
<path d="M826.353 256.92C869.923 239.492 928.377 252.438 966.908 275.758C1001.03 296.409 1029.4 328.11 1041.82 366.322C1048.56 387.045 1048.23 428.805 1014.15 418.631C980.908 408.709 955.943 372.308 939.667 344.441C921.671 313.631 897.92 267.228 907.354 229.679C915.648 196.665 952.898 174.58 981.688 162.444C1020.95 145.895 1057.24 152.059 1088.34 180.992C1102.87 194.518 1158.04 275.578 1105.72 280.105C1085 281.898 1062.07 264.475 1047.33 252.573C1023.04 232.959 1013.68 211.805 1021.83 180.847C1031.38 144.539 1068.88 106.761 1107.75 102.02C1127.04 99.6676 1148.81 107.976 1154.99 126.508" stroke="white" stroke-width="45.8517" stroke-linecap="square"/>
<rect x="216" y="43" width="154.509" height="12.7783" fill="#98F500"/>
<rect x="370.509" y="43" width="154.509" height="12.7783" fill="#FF645C"/>
<rect x="525.019" y="43" width="154.509" height="12.7783" fill="#5FFFC5"/>
<rect x="679.528" y="43" width="154.509" height="12.7783" fill="#FF0ACB"/>
<rect x="834.037" y="43" width="70.9907" height="12.7783" fill="#98F500"/>
<rect x="905.028" y="43" width="70.9907" height="12.7783" fill="#FF645C"/>
<rect x="976.019" y="43" width="70.9907" height="12.7783" fill="#5FFFC5"/>
<rect x="1047.01" y="43" width="70.9907" height="12.7783" fill="#FF0ACB"/>
</g>
<defs>
<clipPath id="clip0_369_19">
<rect width="902" height="507.375" fill="white" transform="translate(216 43)"/>
</clipPath>
</defs>
</svg>
