<svg width="1200" height="675" viewBox="0 0 1200 675" fill="none" xmlns="http://www.w3.org/2000/svg">
<g clip-path="url(#clip0_26_21)">
<rect width="1200" height="675" fill="black"/>
<path d="M70.88 243.072C70.928 236.496 76.448 233.136 88.016 233.136C94.448 233.136 99.968 234.192 103.856 235.296L104.288 242.016C99.968 240.528 94.496 239.28 88.16 239.28C81.2 239.28 78.32 240.672 78.32 243.216C78.32 250.752 106.016 244.464 106.016 259.728C106.016 266.88 100.112 270.864 89.168 270.864C82.592 270.864 76.352 269.328 71.312 266.928L70.832 259.584C77.12 262.56 82.592 264.384 89.216 264.384C95.504 264.384 98.432 262.656 98.432 259.872C98.432 251.568 70.736 258.24 70.88 243.072ZM108.804 243.12H116.82L126.132 263.76L134.436 243.12H142.116L129.828 271.008C126.66 278.16 123.204 280.8 116.436 280.8C114.132 280.8 112.02 280.512 110.34 279.888L110.1 274.128C111.492 274.464 113.172 274.8 115.236 274.8C118.932 274.8 121.284 273.648 122.052 270L108.804 243.12ZM143.849 250.464C143.849 245.088 148.841 242.304 157.913 242.304C162.521 242.304 166.025 242.928 169.097 244.032L169.385 249.888C165.833 248.496 162.185 247.728 157.673 247.728C152.873 247.728 150.473 248.688 150.473 250.464C150.473 255.744 171.209 250.368 171.209 262.416C171.209 268.224 166.313 271.008 157.577 271.008C152.729 271.008 148.505 270.192 144.473 268.32L144.041 262.272C148.697 264.576 152.681 265.536 157.097 265.536C161.801 265.536 164.441 264.432 164.441 262.368C164.441 256.56 143.849 261.6 143.849 250.464ZM179.147 261.696V248.64H173.339V243.12H179.291V238.896L186.347 234V243.12H199.019V248.64H186.347V259.296C186.347 263.088 188.843 265.056 193.403 265.056C195.035 265.056 197.483 264.816 200.315 263.76L199.355 269.328C196.715 270.432 193.979 271.008 191.195 271.008C183.899 271.008 179.147 266.976 179.147 261.696ZM203.461 256.608C203.461 247.872 209.413 242.304 218.677 242.304C227.269 242.304 232.981 247.2 232.981 254.784V258.24H210.565C211.525 262.656 215.509 265.248 221.941 265.248C225.541 265.248 229.045 264.528 232.933 263.328L232.213 268.896C229.189 270.144 225.397 271.008 220.981 271.008C210.373 271.008 203.461 265.344 203.461 256.608ZM226.309 253.92C226.117 249.744 223.477 247.68 218.629 247.68C213.637 247.68 210.757 249.84 210.469 253.92H226.309ZM237.569 270V243.12H244.769V248.928C246.833 244.368 249.953 242.304 254.657 242.304C259.985 242.304 263.441 244.848 264.545 249.36C266.657 244.56 269.921 242.304 274.817 242.304C281.345 242.304 285.089 246.144 285.089 252.816V270H277.889V254.256C277.889 250.368 275.441 247.92 271.649 247.92C268.769 247.92 266.753 249.36 264.929 252.912V270H257.729V254.256C257.729 250.368 255.281 247.92 251.489 247.92C248.609 247.92 246.593 249.36 244.769 252.912V270H237.569ZM290.052 250.464C290.052 245.088 295.044 242.304 304.116 242.304C308.724 242.304 312.228 242.928 315.3 244.032L315.588 249.888C312.036 248.496 308.388 247.728 303.876 247.728C299.076 247.728 296.676 248.688 296.676 250.464C296.676 255.744 317.412 250.368 317.412 262.416C317.412 268.224 312.516 271.008 303.78 271.008C298.932 271.008 294.708 270.192 290.676 268.32L290.244 262.272C294.9 264.576 298.884 265.536 303.3 265.536C308.004 265.536 310.644 264.432 310.644 262.368C310.644 256.56 290.052 261.6 290.052 250.464Z" fill="white"/>
<path d="M350.964 242.304C355.668 242.304 359.748 244.416 361.956 248.112V232.32H369.156V270H361.956V264.672C359.412 268.848 355.572 271.008 350.964 271.008C343.284 271.008 337.524 265.056 337.524 256.56C337.524 247.968 343.236 242.304 350.964 242.304ZM353.556 248.016C348.324 248.016 344.916 251.472 344.916 256.656C344.916 261.84 348.324 265.296 353.556 265.296C358.74 265.296 362.196 261.888 362.196 256.8V256.32C362.196 251.328 358.692 248.016 353.556 248.016ZM374.18 256.608C374.18 247.872 380.132 242.304 389.396 242.304C397.988 242.304 403.7 247.2 403.7 254.784V258.24H381.284C382.244 262.656 386.228 265.248 392.66 265.248C396.26 265.248 399.764 264.528 403.652 263.328L402.932 268.896C399.908 270.144 396.116 271.008 391.7 271.008C381.092 271.008 374.18 265.344 374.18 256.608ZM397.028 253.92C396.836 249.744 394.196 247.68 389.348 247.68C384.356 247.68 381.476 249.84 381.188 253.92H397.028ZM407.567 250.464C407.567 245.088 412.559 242.304 421.631 242.304C426.239 242.304 429.743 242.928 432.815 244.032L433.103 249.888C429.551 248.496 425.903 247.728 421.391 247.728C416.591 247.728 414.191 248.688 414.191 250.464C414.191 255.744 434.927 250.368 434.927 262.416C434.927 268.224 430.031 271.008 421.295 271.008C416.447 271.008 412.223 270.192 408.191 268.32L407.759 262.272C412.415 264.576 416.399 265.536 420.815 265.536C425.519 265.536 428.159 264.432 428.159 262.368C428.159 256.56 407.567 261.6 407.567 250.464ZM439.506 243.12H446.85V270H439.506V243.12ZM439.554 232.32H446.898V239.664H439.554V232.32ZM451.623 255.648C451.623 248.016 457.335 242.304 464.775 242.304C469.287 242.304 473.367 244.416 475.575 247.392V243.12H482.775V266.064C482.775 277.296 474.135 280.8 465.207 280.8C461.175 280.8 457.287 280.08 454.023 278.64L453.255 272.544C456.999 274.176 460.743 274.992 464.487 274.992C471.063 274.992 475.575 272.4 475.575 266.544V263.28C473.271 267.168 469.191 269.28 464.775 269.28C457.383 269.28 451.623 263.376 451.623 255.648ZM459.015 255.888C459.015 260.688 462.327 264.096 467.463 264.096C472.263 264.096 475.815 261.072 475.815 256.512V256.032C475.815 250.8 472.311 247.488 467.463 247.488C462.423 247.488 459.015 251.04 459.015 255.888ZM488.116 270V243.12H495.316V248.928C497.428 244.464 500.98 242.304 506.212 242.304C513.076 242.304 516.916 246.096 516.916 252.816V270H509.716V254.256C509.716 250.32 507.22 247.92 503.14 247.92C499.732 247.92 497.14 249.552 495.316 252.96V270H488.116Z" fill="#9E9E9E"/>
<path d="M86.768 102.08C81.008 102.272 77.6 109.52 77.6 120.32C77.6 131.024 81.008 138.368 86.768 138.56V144.32C76.784 144.176 70.4 134.864 70.4 120.32C70.4 105.68 76.784 96.464 86.768 96.32V102.08ZM88.6831 112.64V107.12H94.2991V106.736C94.2991 100.016 99.1951 96.08 107.499 96.08C110.763 96.08 113.547 96.512 116.379 97.376L116.619 103.088C114.075 102.176 111.579 101.84 108.843 101.84C103.995 101.84 101.499 103.328 101.499 106.88V107.12H113.643V112.64H101.499V134H94.2991V112.64H88.6831ZM116.414 127.568C116.414 121.376 122.702 118.352 135.662 118.352H137.438V117.44C137.438 113.84 134.51 111.824 129.326 111.824C126.014 111.824 123.086 112.496 118.622 114.176V108.896C122.174 107.216 125.678 106.304 130.046 106.304C139.31 106.304 144.494 110.48 144.494 117.968V134H137.486V129.2C134.894 132.56 130.958 134.864 125.726 134.864C119.87 134.864 116.414 132.128 116.414 127.568ZM123.278 126.56C123.278 128.48 125.102 129.632 127.982 129.632C131.054 129.632 134.27 128.384 137.438 125.984V122.672H135.854C126.494 122.672 123.278 124.016 123.278 126.56ZM178.139 107.12V134H170.939V128.384C168.875 132.848 165.419 135.008 160.331 135.008C153.467 135.008 149.627 131.216 149.627 124.496V107.12H156.827V123.056C156.827 126.992 159.323 129.392 163.403 129.392C166.619 129.392 169.115 127.76 170.939 124.4V107.12H178.139ZM183.224 114.464C183.224 109.088 188.216 106.304 197.288 106.304C201.896 106.304 205.4 106.928 208.472 108.032L208.76 113.888C205.208 112.496 201.56 111.728 197.048 111.728C192.248 111.728 189.848 112.688 189.848 114.464C189.848 119.744 210.584 114.368 210.584 126.416C210.584 132.224 205.688 135.008 196.952 135.008C192.104 135.008 187.88 134.192 183.848 132.32L183.416 126.272C188.072 128.576 192.056 129.536 196.472 129.536C201.176 129.536 203.816 128.432 203.816 126.368C203.816 120.56 183.224 125.6 183.224 114.464ZM218.522 125.696V112.64H212.714V107.12H218.666V102.896L225.722 98V107.12H238.394V112.64H225.722V123.296C225.722 127.088 228.218 129.056 232.778 129.056C234.41 129.056 236.858 128.816 239.69 127.76L238.73 133.328C236.09 134.432 233.354 135.008 230.57 135.008C223.274 135.008 218.522 130.976 218.522 125.696ZM244.271 138.56C250.031 138.368 253.439 131.12 253.439 120.32C253.439 109.616 250.031 102.272 244.271 102.08V96.32C254.255 96.464 260.639 105.776 260.639 120.32C260.639 134.96 254.255 144.176 244.271 144.32V138.56Z" fill="#838383"/>
<path d="M71.36 356V320H95.648C104.096 320 107.696 325.328 107.696 331.28C107.696 338.96 101.696 342.56 95.648 342.56H79.04V356H71.36ZM93.248 336.32C98.048 336.32 100.016 334.832 100.016 331.28C100.016 327.728 97.904 326.24 92.912 326.24H79.04V336.32H93.248ZM112.271 318.32H119.471V356H112.271V318.32ZM124.008 349.568C124.008 343.376 130.296 340.352 143.256 340.352H145.032V339.44C145.032 335.84 142.104 333.824 136.92 333.824C133.608 333.824 130.68 334.496 126.216 336.176V330.896C129.768 329.216 133.272 328.304 137.64 328.304C146.904 328.304 152.088 332.48 152.088 339.968V356H145.08V351.2C142.488 354.56 138.552 356.864 133.32 356.864C127.464 356.864 124.008 354.128 124.008 349.568ZM130.872 348.56C130.872 350.48 132.696 351.632 135.576 351.632C138.648 351.632 141.864 350.384 145.032 347.984V344.672H143.448C134.088 344.672 130.872 346.016 130.872 348.56ZM160.772 347.696V334.64H154.964V329.12H160.916V324.896L167.972 320V329.12H180.644V334.64H167.972V345.296C167.972 349.088 170.468 351.056 175.028 351.056C176.66 351.056 179.108 350.816 181.94 349.76L180.98 355.328C178.34 356.432 175.604 357.008 172.82 357.008C165.524 357.008 160.772 352.976 160.772 347.696ZM184.121 334.64V329.12H189.737V328.736C189.737 322.016 194.633 318.08 202.937 318.08C206.201 318.08 208.985 318.512 211.817 319.376L212.057 325.088C209.513 324.176 207.017 323.84 204.281 323.84C199.433 323.84 196.937 325.328 196.937 328.88V329.12H209.081V334.64H196.937V356H189.737V334.64H184.121ZM227.698 357.008C217.906 357.008 211.618 351.248 211.618 342.704C211.618 334.016 217.954 328.304 227.698 328.304C237.49 328.304 243.778 334.016 243.778 342.704C243.778 351.248 237.49 357.008 227.698 357.008ZM227.698 351.2C232.834 351.2 236.385 347.888 236.385 342.704C236.385 337.424 232.834 334.064 227.698 334.064C222.562 334.064 219.01 337.424 219.01 342.704C219.01 347.888 222.562 351.2 227.698 351.2ZM248.397 356V329.12H255.405V335.408C257.565 330.848 261.837 328.736 266.205 328.736C266.877 328.736 267.549 328.784 268.221 328.88V335.984C266.589 335.552 265.053 335.36 263.613 335.36C260.397 335.36 257.613 336.416 255.597 338.432V356H248.397ZM272.116 356V329.12H279.316V334.928C281.38 330.368 284.5 328.304 289.204 328.304C294.531 328.304 297.988 330.848 299.092 335.36C301.204 330.56 304.468 328.304 309.364 328.304C315.892 328.304 319.635 332.144 319.635 338.816V356H312.436V340.256C312.436 336.368 309.988 333.92 306.196 333.92C303.316 333.92 301.3 335.36 299.476 338.912V356H292.276V340.256C292.276 336.368 289.828 333.92 286.036 333.92C283.156 333.92 281.14 335.36 279.316 338.912V356H272.116Z" fill="white"/>
<path d="M340.852 342.608C340.852 333.872 346.804 328.304 356.068 328.304C364.66 328.304 370.372 333.2 370.372 340.784V344.24H347.956C348.916 348.656 352.9 351.248 359.332 351.248C362.932 351.248 366.436 350.528 370.324 349.328L369.604 354.896C366.58 356.144 362.788 357.008 358.372 357.008C347.764 357.008 340.852 351.344 340.852 342.608ZM363.7 339.92C363.508 335.744 360.868 333.68 356.02 333.68C351.028 333.68 348.148 335.84 347.86 339.92H363.7ZM374.959 356V329.12H382.159V334.928C384.271 330.464 387.823 328.304 393.055 328.304C399.919 328.304 403.759 332.096 403.759 338.816V356H396.559V340.256C396.559 336.32 394.063 333.92 389.983 333.92C386.575 333.92 383.983 335.552 382.159 338.96V356H374.959ZM408.404 341.648C408.404 334.016 414.116 328.304 421.556 328.304C426.068 328.304 430.148 330.416 432.356 333.392V329.12H439.556V352.064C439.556 363.296 430.916 366.8 421.988 366.8C417.956 366.8 414.068 366.08 410.804 364.64L410.036 358.544C413.78 360.176 417.524 360.992 421.268 360.992C427.844 360.992 432.356 358.4 432.356 352.544V349.28C430.052 353.168 425.972 355.28 421.556 355.28C414.164 355.28 408.404 349.376 408.404 341.648ZM415.796 341.888C415.796 346.688 419.108 350.096 424.244 350.096C429.044 350.096 432.596 347.072 432.596 342.512V342.032C432.596 336.8 429.092 333.488 424.244 333.488C419.204 333.488 415.796 337.04 415.796 341.888ZM444.897 329.12H452.241V356H444.897V329.12ZM444.945 318.32H452.289V325.664H444.945V318.32ZM458.022 356V329.12H465.222V334.928C467.334 330.464 470.886 328.304 476.118 328.304C482.982 328.304 486.822 332.096 486.822 338.816V356H479.622V340.256C479.622 336.32 477.126 333.92 473.046 333.92C469.638 333.92 467.046 335.552 465.222 338.96V356H458.022ZM491.227 342.608C491.227 333.872 497.179 328.304 506.443 328.304C515.035 328.304 520.747 333.2 520.747 340.784V344.24H498.331C499.291 348.656 503.275 351.248 509.707 351.248C513.307 351.248 516.811 350.528 520.699 349.328L519.979 354.896C516.955 356.144 513.163 357.008 508.747 357.008C498.139 357.008 491.227 351.344 491.227 342.608ZM514.075 339.92C513.883 335.744 511.243 333.68 506.395 333.68C501.403 333.68 498.523 335.84 498.235 339.92H514.075ZM524.086 342.608C524.086 333.872 530.038 328.304 539.302 328.304C547.894 328.304 553.606 333.2 553.606 340.784V344.24H531.19C532.15 348.656 536.134 351.248 542.566 351.248C546.166 351.248 549.67 350.528 553.558 349.328L552.838 354.896C549.814 356.144 546.022 357.008 541.606 357.008C530.998 357.008 524.086 351.344 524.086 342.608ZM546.934 339.92C546.742 335.744 544.102 333.68 539.254 333.68C534.262 333.68 531.382 335.84 531.094 339.92H546.934ZM558.194 356V329.12H565.202V335.408C567.362 330.848 571.634 328.736 576.002 328.736C576.674 328.736 577.346 328.784 578.018 328.88V335.984C576.386 335.552 574.85 335.36 573.41 335.36C570.194 335.36 567.41 336.416 565.394 338.432V356H558.194ZM581.912 329.12H589.256V356H581.912V329.12ZM581.96 318.32H589.304V325.664H581.96V318.32ZM595.037 356V329.12H602.237V334.928C604.349 330.464 607.901 328.304 613.133 328.304C619.997 328.304 623.837 332.096 623.837 338.816V356H616.637V340.256C616.637 336.32 614.141 333.92 610.061 333.92C606.653 333.92 604.061 335.552 602.237 338.96V356H595.037ZM628.483 341.648C628.483 334.016 634.195 328.304 641.635 328.304C646.147 328.304 650.227 330.416 652.435 333.392V329.12H659.635V352.064C659.635 363.296 650.995 366.8 642.067 366.8C638.035 366.8 634.147 366.08 630.883 364.64L630.115 358.544C633.859 360.176 637.603 360.992 641.347 360.992C647.923 360.992 652.435 358.4 652.435 352.544V349.28C650.131 353.168 646.051 355.28 641.635 355.28C634.243 355.28 628.483 349.376 628.483 341.648ZM635.875 341.888C635.875 346.688 639.187 350.096 644.323 350.096C649.123 350.096 652.675 347.072 652.675 342.512V342.032C652.675 336.8 649.171 333.488 644.323 333.488C639.283 333.488 635.875 337.04 635.875 341.888Z" fill="#9E9E9E"/>
<path d="M71.36 442V406H95.648C104.096 406 107.696 411.328 107.696 417.28C107.696 424.96 101.696 428.56 95.648 428.56H79.04V442H71.36ZM93.248 422.32C98.048 422.32 100.016 420.832 100.016 417.28C100.016 413.728 97.904 412.24 92.912 412.24H79.04V422.32H93.248ZM112.319 442V415.12H119.327V421.408C121.487 416.848 125.759 414.736 130.127 414.736C130.799 414.736 131.471 414.784 132.143 414.88V421.984C130.511 421.552 128.975 421.36 127.535 421.36C124.319 421.36 121.535 422.416 119.519 424.432V442H112.319ZM150.401 443.008C140.609 443.008 134.321 437.248 134.321 428.704C134.321 420.016 140.657 414.304 150.401 414.304C160.193 414.304 166.481 420.016 166.481 428.704C166.481 437.248 160.193 443.008 150.401 443.008ZM150.401 437.2C155.537 437.2 159.089 433.888 159.089 428.704C159.089 423.424 155.537 420.064 150.401 420.064C145.265 420.064 141.713 423.424 141.713 428.704C141.713 433.888 145.265 437.2 150.401 437.2ZM183.292 414.304C187.996 414.304 192.076 416.416 194.284 420.112V404.32H201.484V442H194.284V436.672C191.74 440.848 187.9 443.008 183.292 443.008C175.612 443.008 169.852 437.056 169.852 428.56C169.852 419.968 175.564 414.304 183.292 414.304ZM185.884 420.016C180.652 420.016 177.244 423.472 177.244 428.656C177.244 433.84 180.652 437.296 185.884 437.296C191.068 437.296 194.524 433.888 194.524 428.8V428.32C194.524 423.328 191.02 420.016 185.884 420.016ZM236.076 415.12V442H228.876V436.384C226.812 440.848 223.356 443.008 218.268 443.008C211.404 443.008 207.564 439.216 207.564 432.496V415.12H214.764V431.056C214.764 434.992 217.26 437.392 221.34 437.392C224.556 437.392 227.052 435.76 228.876 432.4V415.12H236.076ZM256.857 414.304C260.553 414.304 263.817 415.024 267.369 416.656L267.609 422.656C263.865 420.832 260.841 420.064 257.769 420.064C251.673 420.064 248.025 423.232 248.025 428.512C248.025 433.696 251.769 437.056 258.345 437.056C261.705 437.056 265.593 436.144 268.137 434.56L267.657 440.512C264.681 442.192 261.225 443.008 256.905 443.008C246.873 443.008 240.633 437.488 240.633 428.608C240.633 419.776 246.825 414.304 256.857 414.304ZM275.851 433.696V420.64H270.043V415.12H275.995V410.896L283.051 406V415.12H295.723V420.64H283.051V431.296C283.051 435.088 285.547 437.056 290.107 437.056C291.739 437.056 294.187 436.816 297.019 435.76L296.059 441.328C293.419 442.432 290.683 443.008 287.899 443.008C280.603 443.008 275.851 438.976 275.851 433.696Z" fill="white"/>
<path d="M330.62 414.304C335.324 414.304 339.404 416.416 341.612 420.112V404.32H348.812V442H341.612V436.672C339.068 440.848 335.228 443.008 330.62 443.008C322.94 443.008 317.18 437.056 317.18 428.56C317.18 419.968 322.892 414.304 330.62 414.304ZM333.212 420.016C327.98 420.016 324.572 423.472 324.572 428.656C324.572 433.84 327.98 437.296 333.212 437.296C338.396 437.296 341.852 433.888 341.852 428.8V428.32C341.852 423.328 338.348 420.016 333.212 420.016ZM353.836 428.608C353.836 419.872 359.788 414.304 369.052 414.304C377.644 414.304 383.356 419.2 383.356 426.784V430.24H360.94C361.9 434.656 365.884 437.248 372.316 437.248C375.916 437.248 379.42 436.528 383.308 435.328L382.588 440.896C379.564 442.144 375.772 443.008 371.356 443.008C360.748 443.008 353.836 437.344 353.836 428.608ZM376.684 425.92C376.492 421.744 373.852 419.68 369.004 419.68C364.012 419.68 361.132 421.84 360.844 425.92H376.684ZM385.976 415.12H394.184L402.536 435.664L410.84 415.12L418.856 415.168L406.76 442H398.072L385.976 415.12ZM419.789 428.608C419.789 419.872 425.741 414.304 435.005 414.304C443.597 414.304 449.309 419.2 449.309 426.784V430.24H426.893C427.853 434.656 431.837 437.248 438.269 437.248C441.869 437.248 445.373 436.528 449.261 435.328L448.541 440.896C445.517 442.144 441.725 443.008 437.309 443.008C426.701 443.008 419.789 437.344 419.789 428.608ZM442.637 425.92C442.445 421.744 439.805 419.68 434.957 419.68C429.965 419.68 427.085 421.84 426.797 425.92H442.637ZM453.849 404.32H461.049V442H453.849V404.32ZM481.666 443.008C471.874 443.008 465.586 437.248 465.586 428.704C465.586 420.016 471.922 414.304 481.666 414.304C491.458 414.304 497.746 420.016 497.746 428.704C497.746 437.248 491.458 443.008 481.666 443.008ZM481.666 437.2C486.802 437.2 490.354 433.888 490.354 428.704C490.354 423.424 486.802 420.064 481.666 420.064C476.53 420.064 472.978 423.424 472.978 428.704C472.978 433.888 476.53 437.2 481.666 437.2ZM520.558 443.008C515.854 443.008 511.773 440.896 509.566 437.2V452.32H502.366V415.12H509.566V420.64C512.109 416.464 515.95 414.304 520.558 414.304C528.238 414.304 533.998 420.256 533.998 428.752C533.998 437.344 528.286 443.008 520.558 443.008ZM517.966 437.296C523.198 437.296 526.606 433.84 526.606 428.656C526.606 423.472 523.198 420.016 517.966 420.016C512.782 420.016 509.326 423.424 509.326 428.512V428.992C509.326 433.984 512.83 437.296 517.966 437.296ZM538.6 442V415.12H545.8V420.928C547.864 416.368 550.984 414.304 555.688 414.304C561.016 414.304 564.472 416.848 565.576 421.36C567.688 416.56 570.952 414.304 575.848 414.304C582.376 414.304 586.12 418.144 586.12 424.816V442H578.92V426.256C578.92 422.368 576.472 419.92 572.68 419.92C569.8 419.92 567.784 421.36 565.96 424.912V442H558.76V426.256C558.76 422.368 556.312 419.92 552.52 419.92C549.64 419.92 547.624 421.36 545.8 424.912V442H538.6ZM590.555 428.608C590.555 419.872 596.507 414.304 605.771 414.304C614.363 414.304 620.075 419.2 620.075 426.784V430.24H597.659C598.619 434.656 602.603 437.248 609.035 437.248C612.635 437.248 616.139 436.528 620.027 435.328L619.307 440.896C616.283 442.144 612.491 443.008 608.075 443.008C597.467 443.008 590.555 437.344 590.555 428.608ZM613.403 425.92C613.211 421.744 610.571 419.68 605.723 419.68C600.731 419.68 597.851 421.84 597.563 425.92H613.403ZM624.662 442V415.12H631.862V420.928C633.974 416.464 637.526 414.304 642.758 414.304C649.622 414.304 653.462 418.096 653.462 424.816V442H646.262V426.256C646.262 422.32 643.766 419.92 639.686 419.92C636.278 419.92 633.686 421.552 631.862 424.96V442H624.662ZM662.476 433.696V420.64H656.668V415.12H662.62V410.896L669.676 406V415.12H682.348V420.64H669.676V431.296C669.676 435.088 672.172 437.056 676.732 437.056C678.364 437.056 680.812 436.816 683.644 435.76L682.684 441.328C680.044 442.432 677.308 443.008 674.524 443.008C667.228 443.008 662.476 438.976 662.476 433.696Z" fill="#9E9E9E"/>
<path d="M74.864 637.24C73.728 637.24 72.704 636.984 71.792 636.472C70.88 635.944 70.16 635.232 69.632 634.336C69.104 633.44 68.84 632.424 68.84 631.288C68.84 630.168 69.096 629.16 69.608 628.264C70.136 627.368 70.84 626.664 71.72 626.152C72.616 625.624 73.616 625.36 74.72 625.36C75.776 625.36 76.704 625.6 77.504 626.08C78.32 626.56 78.952 627.224 79.4 628.072C79.864 628.92 80.096 629.88 80.096 630.952C80.096 631.112 80.088 631.288 80.072 631.48C80.056 631.656 80.024 631.864 79.976 632.104H70.352V630.304H78.824L78.032 631C78.032 630.232 77.896 629.584 77.624 629.056C77.352 628.512 76.968 628.096 76.472 627.808C75.976 627.504 75.376 627.352 74.672 627.352C73.936 627.352 73.288 627.512 72.728 627.832C72.168 628.152 71.736 628.6 71.432 629.176C71.128 629.752 70.976 630.432 70.976 631.216C70.976 632.016 71.136 632.72 71.456 633.328C71.776 633.92 72.232 634.384 72.824 634.72C73.416 635.04 74.096 635.2 74.864 635.2C75.504 635.2 76.088 635.088 76.616 634.864C77.16 634.64 77.624 634.304 78.008 633.856L79.4 635.272C78.856 635.912 78.184 636.4 77.384 636.736C76.6 637.072 75.76 637.24 74.864 637.24ZM87.2992 637.24C86.2592 637.24 85.3152 636.984 84.4672 636.472C83.6192 635.944 82.9472 635.232 82.4512 634.336C81.9712 633.44 81.7312 632.432 81.7312 631.312C81.7312 630.192 81.9712 629.184 82.4512 628.288C82.9472 627.392 83.6112 626.68 84.4432 626.152C85.2912 625.624 86.2432 625.36 87.2992 625.36C88.1632 625.36 88.9312 625.544 89.6032 625.912C90.2912 626.264 90.8432 626.76 91.2592 627.4C91.6752 628.024 91.9072 628.752 91.9552 629.584V633.016C91.9072 633.832 91.6752 634.56 91.2592 635.2C90.8592 635.84 90.3152 636.344 89.6272 636.712C88.9552 637.064 88.1792 637.24 87.2992 637.24ZM87.6592 635.2C88.7312 635.2 89.5952 634.84 90.2512 634.12C90.9072 633.384 91.2352 632.448 91.2352 631.312C91.2352 630.528 91.0832 629.848 90.7792 629.272C90.4912 628.68 90.0752 628.224 89.5312 627.904C88.9872 627.568 88.3552 627.4 87.6352 627.4C86.9152 627.4 86.2752 627.568 85.7152 627.904C85.1712 628.24 84.7392 628.704 84.4192 629.296C84.1152 629.872 83.9632 630.536 83.9632 631.288C83.9632 632.056 84.1152 632.736 84.4192 633.328C84.7392 633.904 85.1792 634.36 85.7392 634.696C86.2992 635.032 86.9392 635.2 87.6592 635.2ZM91.0912 637V633.928L91.4992 631.144L91.0912 628.384V625.6H93.2752V637H91.0912ZM101.7 637.24C100.564 637.24 99.5399 636.984 98.6279 636.472C97.7159 635.944 96.9959 635.232 96.4679 634.336C95.9399 633.44 95.6759 632.424 95.6759 631.288C95.6759 630.168 95.9319 629.16 96.4439 628.264C96.9719 627.368 97.6759 626.664 98.5559 626.152C99.4519 625.624 100.452 625.36 101.556 625.36C102.612 625.36 103.54 625.6 104.34 626.08C105.156 626.56 105.788 627.224 106.236 628.072C106.7 628.92 106.932 629.88 106.932 630.952C106.932 631.112 106.924 631.288 106.908 631.48C106.892 631.656 106.86 631.864 106.812 632.104H97.1879V630.304H105.66L104.868 631C104.868 630.232 104.732 629.584 104.46 629.056C104.188 628.512 103.804 628.096 103.308 627.808C102.812 627.504 102.212 627.352 101.508 627.352C100.772 627.352 100.124 627.512 99.5639 627.832C99.0039 628.152 98.5719 628.6 98.2679 629.176C97.9639 629.752 97.8119 630.432 97.8119 631.216C97.8119 632.016 97.9719 632.72 98.2919 633.328C98.6119 633.92 99.0679 634.384 99.6599 634.72C100.252 635.04 100.932 635.2 101.7 635.2C102.34 635.2 102.924 635.088 103.452 634.864C103.996 634.64 104.46 634.304 104.844 633.856L106.236 635.272C105.692 635.912 105.02 636.4 104.22 636.736C103.436 637.072 102.596 637.24 101.7 637.24ZM109.287 637V619.864H111.447V637H109.287ZM114.607 637V619.864H116.767V637H114.607ZM119.928 637V619.864H122.088V637H119.928ZM126.88 637V623.896C126.88 623.048 127.064 622.312 127.432 621.688C127.8 621.048 128.304 620.544 128.944 620.176C129.6 619.808 130.36 619.624 131.224 619.624C131.88 619.624 132.448 619.736 132.928 619.96C133.408 620.184 133.848 620.512 134.248 620.944L132.832 622.336C132.624 622.112 132.392 621.944 132.136 621.832C131.88 621.704 131.568 621.64 131.2 621.64C130.512 621.64 129.976 621.84 129.592 622.24C129.224 622.64 129.04 623.192 129.04 623.896V637H126.88ZM124.072 627.568V625.6H132.664V627.568H124.072ZM139.026 637.24C137.986 637.24 137.042 636.984 136.194 636.472C135.346 635.944 134.674 635.232 134.178 634.336C133.698 633.44 133.458 632.432 133.458 631.312C133.458 630.192 133.698 629.184 134.178 628.288C134.674 627.392 135.338 626.68 136.17 626.152C137.018 625.624 137.97 625.36 139.026 625.36C139.89 625.36 140.658 625.544 141.33 625.912C142.018 626.264 142.57 626.76 142.986 627.4C143.402 628.024 143.634 628.752 143.682 629.584V633.016C143.634 633.832 143.402 634.56 142.986 635.2C142.586 635.84 142.042 636.344 141.354 636.712C140.682 637.064 139.906 637.24 139.026 637.24ZM139.386 635.2C140.458 635.2 141.322 634.84 141.978 634.12C142.634 633.384 142.962 632.448 142.962 631.312C142.962 630.528 142.81 629.848 142.506 629.272C142.218 628.68 141.802 628.224 141.258 627.904C140.714 627.568 140.082 627.4 139.362 627.4C138.642 627.4 138.002 627.568 137.442 627.904C136.898 628.24 136.466 628.704 136.146 629.296C135.842 629.872 135.69 630.536 135.69 631.288C135.69 632.056 135.842 632.736 136.146 633.328C136.466 633.904 136.906 634.36 137.466 634.696C138.026 635.032 138.666 635.2 139.386 635.2ZM142.818 637V633.928L143.226 631.144L142.818 628.384V625.6H145.002V637H142.818ZM152.73 637.24C151.803 637.24 150.963 637.032 150.211 636.616C149.475 636.184 148.899 635.592 148.483 634.84C148.067 634.088 147.859 633.216 147.859 632.224V625.6H150.019V632.128C150.019 632.752 150.123 633.296 150.331 633.76C150.555 634.208 150.875 634.552 151.291 634.792C151.707 635.032 152.195 635.152 152.755 635.152C153.603 635.152 154.267 634.888 154.747 634.36C155.227 633.816 155.467 633.072 155.467 632.128V625.6H157.627V632.224C157.627 633.216 157.419 634.088 157.003 634.84C156.587 635.592 156.011 636.184 155.275 636.616C154.555 637.032 153.707 637.24 152.73 637.24ZM164.146 637.24C163.506 637.24 162.898 637.16 162.322 637C161.762 636.824 161.242 636.584 160.762 636.28C160.282 635.96 159.866 635.584 159.514 635.152L160.906 633.76C161.322 634.272 161.802 634.656 162.346 634.912C162.89 635.152 163.498 635.272 164.17 635.272C164.842 635.272 165.362 635.16 165.73 634.936C166.098 634.696 166.282 634.368 166.282 633.952C166.282 633.536 166.13 633.216 165.826 632.992C165.538 632.752 165.162 632.56 164.698 632.416C164.234 632.256 163.738 632.104 163.21 631.96C162.698 631.8 162.21 631.6 161.746 631.36C161.282 631.12 160.898 630.792 160.594 630.376C160.306 629.96 160.162 629.408 160.162 628.72C160.162 628.032 160.33 627.44 160.666 626.944C161.002 626.432 161.466 626.04 162.058 625.768C162.666 625.496 163.394 625.36 164.242 625.36C165.138 625.36 165.93 625.52 166.618 625.84C167.322 626.144 167.898 626.608 168.346 627.232L166.954 628.624C166.634 628.208 166.234 627.888 165.754 627.664C165.29 627.44 164.762 627.328 164.17 627.328C163.546 627.328 163.066 627.44 162.73 627.664C162.41 627.872 162.25 628.168 162.25 628.552C162.25 628.936 162.394 629.232 162.682 629.44C162.97 629.648 163.346 629.824 163.81 629.968C164.29 630.112 164.786 630.264 165.298 630.424C165.81 630.568 166.298 630.768 166.762 631.024C167.226 631.28 167.602 631.624 167.89 632.056C168.194 632.488 168.346 633.056 168.346 633.76C168.346 634.832 167.962 635.68 167.194 636.304C166.442 636.928 165.426 637.24 164.146 637.24ZM172.516 637V620.824H174.676V637H172.516ZM169.708 627.568V625.6H177.484V627.568H169.708ZM186.736 639.16C185.648 639.16 184.624 638.96 183.664 638.56C182.72 638.176 181.896 637.632 181.192 636.928C180.488 636.224 179.936 635.4 179.536 634.456C179.136 633.496 178.936 632.456 178.936 631.336C178.936 630.216 179.136 629.184 179.536 628.24C179.952 627.28 180.52 626.448 181.24 625.744C181.96 625.024 182.8 624.464 183.76 624.064C184.736 623.664 185.776 623.464 186.88 623.464C188.352 623.464 189.648 623.8 190.768 624.472C191.904 625.144 192.792 626.064 193.432 627.232C194.088 628.4 194.416 629.744 194.416 631.264C194.416 631.952 194.344 632.576 194.2 633.136C194.072 633.68 193.856 634.192 193.552 634.672L191.704 634.576C191.928 634.256 192.104 633.936 192.232 633.616C192.376 633.28 192.48 632.912 192.544 632.512C192.608 632.112 192.64 631.656 192.64 631.144C192.64 629.88 192.408 628.808 191.944 627.928C191.496 627.032 190.84 626.352 189.976 625.888C189.128 625.408 188.104 625.168 186.904 625.168C185.688 625.168 184.616 625.424 183.688 625.936C182.776 626.448 182.064 627.168 181.552 628.096C181.056 629.008 180.808 630.096 180.808 631.36C180.808 632.608 181.048 633.688 181.528 634.6C182.024 635.512 182.72 636.224 183.616 636.736C184.512 637.232 185.536 637.48 186.688 637.48C187.536 637.48 188.296 637.36 188.968 637.12C189.64 636.896 190.232 636.552 190.744 636.088L191.944 637.312C191.24 637.92 190.448 638.376 189.568 638.68C188.688 639 187.744 639.16 186.736 639.16ZM186.304 634.84C185.68 634.84 185.112 634.688 184.6 634.384C184.104 634.064 183.696 633.64 183.376 633.112C183.072 632.584 182.92 631.992 182.92 631.336C182.92 630.68 183.072 630.088 183.376 629.56C183.696 629.016 184.104 628.592 184.6 628.288C185.112 627.968 185.68 627.808 186.304 627.808C187.072 627.808 187.696 628 188.176 628.384C188.672 628.752 188.92 629.296 188.92 630.016V632.632C188.92 633.336 188.68 633.88 188.2 634.264C187.72 634.648 187.088 634.84 186.304 634.84ZM186.4 633.328C186.976 633.328 187.432 633.144 187.768 632.776C188.12 632.392 188.296 631.904 188.296 631.312C188.296 630.704 188.12 630.216 187.768 629.848C187.432 629.48 186.976 629.296 186.4 629.296C185.872 629.296 185.424 629.488 185.056 629.872C184.704 630.24 184.528 630.72 184.528 631.312C184.528 631.904 184.704 632.392 185.056 632.776C185.408 633.144 185.856 633.328 186.4 633.328ZM189.088 634.672V633.256H193.552V634.672H189.088ZM188.416 634.672V632.896L188.656 631.216L188.416 629.608V627.952H189.976V634.672H188.416ZM201.976 642.016C200.808 642.016 199.768 641.8 198.856 641.368C197.96 640.936 197.24 640.328 196.696 639.544L198.088 638.128C198.552 638.72 199.104 639.168 199.744 639.472C200.384 639.792 201.144 639.952 202.024 639.952C203.192 639.952 204.112 639.64 204.784 639.016C205.472 638.408 205.816 637.584 205.816 636.544V633.712L206.2 631.144L205.816 628.6V625.6H207.976V636.544C207.976 637.632 207.72 638.584 207.208 639.4C206.712 640.216 206.008 640.856 205.096 641.32C204.2 641.784 203.16 642.016 201.976 642.016ZM201.976 636.808C200.936 636.808 200 636.56 199.168 636.064C198.352 635.568 197.704 634.888 197.224 634.024C196.744 633.144 196.504 632.16 196.504 631.072C196.504 629.984 196.744 629.016 197.224 628.168C197.704 627.304 198.352 626.624 199.168 626.128C200 625.616 200.936 625.36 201.976 625.36C202.872 625.36 203.664 625.536 204.352 625.888C205.04 626.24 205.584 626.736 205.984 627.376C206.4 628 206.624 628.736 206.656 629.584V632.608C206.608 633.44 206.376 634.176 205.96 634.816C205.56 635.44 205.016 635.928 204.328 636.28C203.64 636.632 202.856 636.808 201.976 636.808ZM202.408 634.768C203.112 634.768 203.728 634.616 204.256 634.312C204.8 634.008 205.216 633.584 205.504 633.04C205.792 632.48 205.936 631.832 205.936 631.096C205.936 630.36 205.784 629.72 205.48 629.176C205.192 628.616 204.784 628.184 204.256 627.88C203.728 627.56 203.104 627.4 202.384 627.4C201.664 627.4 201.032 627.56 200.488 627.88C199.944 628.184 199.512 628.616 199.192 629.176C198.888 629.72 198.736 630.352 198.736 631.072C198.736 631.792 198.888 632.432 199.192 632.992C199.512 633.552 199.944 633.992 200.488 634.312C201.048 634.616 201.688 634.768 202.408 634.768ZM211.146 637V625.6H213.307V637H211.146ZM218.851 637V630.112C218.851 629.264 218.587 628.6 218.059 628.12C217.547 627.624 216.899 627.376 216.115 627.376C215.587 627.376 215.115 627.488 214.699 627.712C214.283 627.936 213.947 628.248 213.691 628.648C213.435 629.048 213.307 629.528 213.307 630.088L212.419 629.656C212.419 628.792 212.603 628.04 212.971 627.4C213.355 626.76 213.875 626.264 214.531 625.912C215.187 625.544 215.923 625.36 216.739 625.36C217.539 625.36 218.259 625.536 218.899 625.888C219.555 626.24 220.067 626.736 220.435 627.376C220.819 628.016 221.011 628.776 221.011 629.656V637H218.851ZM226.555 637V630.112C226.555 629.264 226.291 628.6 225.763 628.12C225.251 627.624 224.611 627.376 223.843 627.376C223.315 627.376 222.835 627.488 222.403 627.712C221.987 627.936 221.651 628.248 221.395 628.648C221.139 629.048 221.011 629.528 221.011 630.088L219.787 629.656C219.835 628.776 220.067 628.024 220.483 627.4C220.915 626.76 221.467 626.264 222.139 625.912C222.811 625.544 223.547 625.36 224.347 625.36C225.179 625.36 225.923 625.536 226.579 625.888C227.235 626.24 227.755 626.736 228.139 627.376C228.539 628.016 228.739 628.784 228.739 629.68V637H226.555ZM236.526 637.24C235.486 637.24 234.542 636.984 233.694 636.472C232.846 635.944 232.174 635.232 231.678 634.336C231.198 633.44 230.958 632.432 230.958 631.312C230.958 630.192 231.198 629.184 231.678 628.288C232.174 627.392 232.838 626.68 233.67 626.152C234.518 625.624 235.47 625.36 236.526 625.36C237.39 625.36 238.158 625.544 238.83 625.912C239.518 626.264 240.07 626.76 240.486 627.4C240.902 628.024 241.134 628.752 241.182 629.584V633.016C241.134 633.832 240.902 634.56 240.486 635.2C240.086 635.84 239.542 636.344 238.854 636.712C238.182 637.064 237.406 637.24 236.526 637.24ZM236.886 635.2C237.958 635.2 238.822 634.84 239.478 634.12C240.134 633.384 240.462 632.448 240.462 631.312C240.462 630.528 240.31 629.848 240.006 629.272C239.718 628.68 239.302 628.224 238.758 627.904C238.214 627.568 237.582 627.4 236.862 627.4C236.142 627.4 235.502 627.568 234.942 627.904C234.398 628.24 233.966 628.704 233.646 629.296C233.342 629.872 233.19 630.536 233.19 631.288C233.19 632.056 233.342 632.736 233.646 633.328C233.966 633.904 234.406 634.36 234.966 634.696C235.526 635.032 236.166 635.2 236.886 635.2ZM240.318 637V633.928L240.726 631.144L240.318 628.384V625.6H242.502V637H240.318ZM245.671 637V625.6H247.831V637H245.671ZM246.751 623.32C246.351 623.32 246.023 623.192 245.767 622.936C245.511 622.664 245.383 622.328 245.383 621.928C245.383 621.544 245.511 621.224 245.767 620.968C246.023 620.696 246.351 620.56 246.751 620.56C247.151 620.56 247.479 620.696 247.735 620.968C247.991 621.224 248.119 621.544 248.119 621.928C248.119 622.328 247.991 622.664 247.735 622.936C247.479 623.192 247.151 623.32 246.751 623.32ZM251.014 637V619.864H253.174V637H251.014ZM258.23 637.24C257.782 637.24 257.406 637.088 257.102 636.784C256.814 636.464 256.67 636.088 256.67 635.656C256.67 635.208 256.814 634.84 257.102 634.552C257.406 634.248 257.782 634.096 258.23 634.096C258.678 634.096 259.046 634.248 259.334 634.552C259.638 634.84 259.79 635.208 259.79 635.656C259.79 636.088 259.638 636.464 259.334 636.784C259.046 637.088 258.678 637.24 258.23 637.24ZM268.034 637.24C266.914 637.24 265.898 636.976 264.986 636.448C264.09 635.92 263.378 635.208 262.85 634.312C262.338 633.4 262.082 632.392 262.082 631.288C262.082 630.168 262.338 629.16 262.85 628.264C263.378 627.368 264.09 626.664 264.986 626.152C265.898 625.624 266.914 625.36 268.034 625.36C268.914 625.36 269.73 625.528 270.482 625.864C271.234 626.184 271.882 626.656 272.426 627.28L270.986 628.72C270.634 628.304 270.202 627.992 269.69 627.784C269.194 627.56 268.642 627.448 268.034 627.448C267.314 627.448 266.674 627.616 266.114 627.952C265.554 628.272 265.114 628.72 264.794 629.296C264.474 629.872 264.314 630.536 264.314 631.288C264.314 632.04 264.474 632.704 264.794 633.28C265.114 633.856 265.554 634.312 266.114 634.648C266.674 634.984 267.314 635.152 268.034 635.152C268.642 635.152 269.194 635.048 269.69 634.84C270.202 634.616 270.642 634.296 271.01 633.88L272.426 635.32C271.898 635.928 271.25 636.4 270.482 636.736C269.73 637.072 268.914 637.24 268.034 637.24ZM279.542 637.24C278.422 637.24 277.414 636.976 276.518 636.448C275.622 635.92 274.91 635.208 274.382 634.312C273.854 633.4 273.59 632.384 273.59 631.264C273.59 630.16 273.854 629.168 274.382 628.288C274.91 627.392 275.622 626.68 276.518 626.152C277.414 625.624 278.422 625.36 279.542 625.36C280.646 625.36 281.646 625.624 282.542 626.152C283.454 626.664 284.174 627.368 284.702 628.264C285.23 629.16 285.494 630.16 285.494 631.264C285.494 632.384 285.23 633.4 284.702 634.312C284.174 635.208 283.454 635.92 282.542 636.448C281.646 636.976 280.646 637.24 279.542 637.24ZM279.542 635.152C280.262 635.152 280.902 634.984 281.462 634.648C282.022 634.312 282.462 633.856 282.782 633.28C283.102 632.688 283.262 632.016 283.262 631.264C283.262 630.528 283.094 629.872 282.758 629.296C282.438 628.72 281.998 628.272 281.438 627.952C280.894 627.616 280.262 627.448 279.542 627.448C278.822 627.448 278.182 627.616 277.622 627.952C277.062 628.272 276.622 628.72 276.302 629.296C275.982 629.872 275.822 630.528 275.822 631.264C275.822 632.016 275.982 632.688 276.302 633.28C276.622 633.856 277.062 634.312 277.622 634.648C278.182 634.984 278.822 635.152 279.542 635.152ZM287.928 637V625.6H290.088V637H287.928ZM295.632 637V630.112C295.632 629.264 295.368 628.6 294.84 628.12C294.328 627.624 293.68 627.376 292.896 627.376C292.368 627.376 291.896 627.488 291.48 627.712C291.064 627.936 290.728 628.248 290.472 628.648C290.216 629.048 290.088 629.528 290.088 630.088L289.2 629.656C289.2 628.792 289.384 628.04 289.752 627.4C290.136 626.76 290.656 626.264 291.312 625.912C291.968 625.544 292.704 625.36 293.52 625.36C294.32 625.36 295.04 625.536 295.68 625.888C296.336 626.24 296.848 626.736 297.216 627.376C297.6 628.016 297.792 628.776 297.792 629.656V637H295.632ZM303.336 637V630.112C303.336 629.264 303.072 628.6 302.544 628.12C302.032 627.624 301.392 627.376 300.624 627.376C300.096 627.376 299.616 627.488 299.184 627.712C298.768 627.936 298.432 628.248 298.176 628.648C297.92 629.048 297.792 629.528 297.792 630.088L296.568 629.656C296.616 628.776 296.848 628.024 297.264 627.4C297.696 626.76 298.248 626.264 298.92 625.912C299.592 625.544 300.328 625.36 301.128 625.36C301.96 625.36 302.704 625.536 303.36 625.888C304.016 626.24 304.536 626.736 304.92 627.376C305.32 628.016 305.52 628.784 305.52 629.68V637H303.336Z" fill="#9E9E9E"/>
<path d="M334.416 629.944V628H344.592V629.944H334.416ZM338.52 623.632H340.512V634.312H338.52V623.632ZM346.8 635.632L352.944 629.152C353.568 628.512 354.056 627.96 354.408 627.496C354.76 627.016 355.008 626.576 355.152 626.176C355.312 625.776 355.392 625.36 355.392 624.928C355.392 624.08 355.12 623.416 354.576 622.936C354.032 622.456 353.328 622.216 352.464 622.216C351.616 622.216 350.872 622.424 350.232 622.84C349.592 623.24 349.024 623.864 348.528 624.712L346.944 623.392C347.6 622.304 348.392 621.488 349.32 620.944C350.248 620.384 351.32 620.104 352.536 620.104C353.56 620.104 354.448 620.304 355.2 620.704C355.968 621.104 356.56 621.664 356.976 622.384C357.392 623.104 357.6 623.944 357.6 624.904C357.6 625.592 357.512 626.208 357.336 626.752C357.176 627.296 356.88 627.856 356.448 628.432C356.032 628.992 355.448 629.664 354.696 630.448L349.728 635.56L346.8 635.632ZM346.8 637V635.632L348.72 634.984H357.984V637H346.8ZM364.92 637.24C363.832 637.24 362.84 637.04 361.944 636.64C361.064 636.224 360.32 635.624 359.712 634.84L361.248 633.304C361.616 633.864 362.12 634.312 362.76 634.648C363.4 634.968 364.112 635.128 364.896 635.128C365.632 635.128 366.264 634.992 366.792 634.72C367.336 634.432 367.76 634.032 368.064 633.52C368.384 633.008 368.544 632.416 368.544 631.744C368.544 631.056 368.384 630.464 368.064 629.968C367.76 629.456 367.328 629.064 366.768 628.792C366.208 628.52 365.544 628.384 364.776 628.384C364.488 628.384 364.2 628.408 363.912 628.456C363.624 628.488 363.344 628.544 363.072 628.624L364.032 627.328C364.336 627.184 364.664 627.072 365.016 626.992C365.368 626.912 365.72 626.872 366.072 626.872C366.968 626.872 367.768 627.08 368.472 627.496C369.192 627.912 369.76 628.496 370.176 629.248C370.608 630 370.824 630.872 370.824 631.864C370.824 632.92 370.568 633.856 370.056 634.672C369.56 635.472 368.872 636.104 367.992 636.568C367.112 637.016 366.088 637.24 364.92 637.24ZM363.072 628.624V627.256L367.944 621.712L370.632 621.688L365.616 627.376L363.072 628.624ZM360.504 622.36V620.344H370.632V621.688L368.664 622.36H360.504ZM372.698 631.264L378.77 620.344H381.314L375.122 631.264H372.698ZM372.698 632.656V631.264L373.658 630.64H385.466V632.656H372.698ZM380.834 637V625.984H383.066V637H380.834ZM394.77 637L399.786 630.16L400.602 629.728C400.41 630.048 400.178 630.328 399.906 630.568C399.634 630.808 399.298 630.992 398.898 631.12C398.514 631.248 398.042 631.312 397.482 631.312C396.522 631.312 395.634 631.08 394.818 630.616C394.018 630.152 393.378 629.512 392.898 628.696C392.418 627.864 392.178 626.928 392.178 625.888C392.178 624.816 392.442 623.848 392.97 622.984C393.498 622.104 394.202 621.408 395.082 620.896C395.962 620.368 396.938 620.104 398.01 620.104C399.098 620.104 400.082 620.36 400.962 620.872C401.842 621.384 402.538 622.072 403.05 622.936C403.562 623.784 403.818 624.744 403.818 625.816C403.818 627.288 403.306 628.752 402.282 630.208L397.386 637H394.77ZM398.01 629.536C398.682 629.536 399.282 629.376 399.81 629.056C400.354 628.72 400.778 628.28 401.082 627.736C401.402 627.176 401.562 626.56 401.562 625.888C401.562 625.184 401.402 624.56 401.082 624.016C400.778 623.456 400.354 623.016 399.81 622.696C399.282 622.376 398.682 622.216 398.01 622.216C397.338 622.216 396.73 622.376 396.186 622.696C395.658 623.016 395.234 623.456 394.914 624.016C394.594 624.56 394.434 625.184 394.434 625.888C394.434 626.576 394.594 627.192 394.914 627.736C395.234 628.28 395.666 628.72 396.21 629.056C396.754 629.376 397.354 629.536 398.01 629.536ZM412.709 637.24C411.461 637.24 410.317 636.888 409.277 636.184C408.253 635.48 407.437 634.488 406.829 633.208C406.221 631.912 405.917 630.392 405.917 628.648C405.917 626.904 406.213 625.392 406.805 624.112C407.413 622.832 408.229 621.848 409.253 621.16C410.277 620.456 411.405 620.104 412.637 620.104C413.901 620.104 415.045 620.456 416.069 621.16C417.093 621.848 417.901 622.832 418.493 624.112C419.101 625.392 419.405 626.912 419.405 628.672C419.405 630.416 419.101 631.936 418.493 633.232C417.901 634.512 417.093 635.504 416.069 636.208C415.061 636.896 413.941 637.24 412.709 637.24ZM412.661 635.104C413.541 635.104 414.309 634.864 414.965 634.384C415.637 633.888 416.165 633.16 416.549 632.2C416.933 631.24 417.125 630.056 417.125 628.648C417.125 627.24 416.933 626.064 416.549 625.12C416.165 624.16 415.637 623.44 414.965 622.96C414.293 622.464 413.517 622.216 412.637 622.216C411.773 622.216 411.005 622.464 410.333 622.96C409.661 623.44 409.133 624.16 408.749 625.12C408.381 626.064 408.197 627.24 408.197 628.648C408.197 630.056 408.381 631.24 408.749 632.2C409.133 633.16 409.661 633.888 410.333 634.384C411.005 634.864 411.781 635.104 412.661 635.104ZM421.284 635.632L427.428 629.152C428.052 628.512 428.54 627.96 428.892 627.496C429.244 627.016 429.492 626.576 429.636 626.176C429.796 625.776 429.876 625.36 429.876 624.928C429.876 624.08 429.604 623.416 429.06 622.936C428.516 622.456 427.812 622.216 426.948 622.216C426.1 622.216 425.356 622.424 424.716 622.84C424.076 623.24 423.508 623.864 423.012 624.712L421.428 623.392C422.084 622.304 422.876 621.488 423.804 620.944C424.732 620.384 425.804 620.104 427.02 620.104C428.044 620.104 428.932 620.304 429.684 620.704C430.452 621.104 431.044 621.664 431.46 622.384C431.876 623.104 432.084 623.944 432.084 624.904C432.084 625.592 431.996 626.208 431.82 626.752C431.66 627.296 431.364 627.856 430.932 628.432C430.516 628.992 429.932 629.664 429.18 630.448L424.212 635.56L421.284 635.632ZM421.284 637V635.632L423.204 634.984H432.468V637H421.284ZM444.397 637.24C443.309 637.24 442.317 637.04 441.421 636.64C440.541 636.224 439.797 635.624 439.189 634.84L440.725 633.304C441.093 633.864 441.597 634.312 442.237 634.648C442.877 634.968 443.589 635.128 444.373 635.128C445.109 635.128 445.741 634.992 446.269 634.72C446.813 634.432 447.237 634.032 447.541 633.52C447.861 633.008 448.021 632.416 448.021 631.744C448.021 631.056 447.861 630.464 447.541 629.968C447.237 629.456 446.805 629.064 446.245 628.792C445.685 628.52 445.021 628.384 444.253 628.384C443.965 628.384 443.677 628.408 443.389 628.456C443.101 628.488 442.821 628.544 442.549 628.624L443.509 627.328C443.813 627.184 444.141 627.072 444.493 626.992C444.845 626.912 445.197 626.872 445.549 626.872C446.445 626.872 447.245 627.08 447.949 627.496C448.669 627.912 449.237 628.496 449.653 629.248C450.085 630 450.301 630.872 450.301 631.864C450.301 632.92 450.045 633.856 449.533 634.672C449.037 635.472 448.349 636.104 447.469 636.568C446.589 637.016 445.565 637.24 444.397 637.24ZM442.549 628.624V627.256L447.421 621.712L450.109 621.688L445.093 627.376L442.549 628.624ZM439.981 622.36V620.344H450.109V621.688L448.141 622.36H439.981ZM457.983 637.24C456.879 637.24 455.903 637.032 455.055 636.616C454.223 636.2 453.575 635.624 453.111 634.888C452.647 634.152 452.415 633.32 452.415 632.392C452.415 631.64 452.559 630.952 452.847 630.328C453.135 629.704 453.559 629.176 454.119 628.744C454.679 628.296 455.335 627.976 456.087 627.784L456.159 628.432C455.519 628.256 454.975 627.976 454.527 627.592C454.079 627.192 453.735 626.728 453.495 626.2C453.271 625.656 453.159 625.08 453.159 624.472C453.159 623.608 453.367 622.848 453.783 622.192C454.199 621.536 454.767 621.024 455.487 620.656C456.223 620.272 457.055 620.08 457.983 620.08C458.927 620.08 459.759 620.272 460.479 620.656C461.199 621.024 461.767 621.536 462.183 622.192C462.599 622.848 462.807 623.608 462.807 624.472C462.807 625.08 462.687 625.656 462.447 626.2C462.223 626.728 461.887 627.192 461.439 627.592C461.007 627.976 460.471 628.256 459.831 628.432L459.879 627.784C460.647 627.976 461.303 628.296 461.847 628.744C462.407 629.176 462.831 629.704 463.119 630.328C463.423 630.952 463.575 631.64 463.575 632.392C463.575 633.32 463.343 634.152 462.879 634.888C462.415 635.624 461.759 636.2 460.911 636.616C460.079 637.032 459.103 637.24 457.983 637.24ZM457.983 635.2C458.655 635.2 459.239 635.072 459.735 634.816C460.247 634.544 460.647 634.176 460.935 633.712C461.239 633.248 461.391 632.712 461.391 632.104C461.391 631.512 461.239 630.984 460.935 630.52C460.647 630.056 460.247 629.696 459.735 629.44C459.239 629.168 458.655 629.032 457.983 629.032C457.327 629.032 456.743 629.168 456.231 629.44C455.719 629.696 455.311 630.056 455.007 630.52C454.719 630.984 454.575 631.512 454.575 632.104C454.575 632.712 454.719 633.248 455.007 633.712C455.311 634.176 455.719 634.544 456.231 634.816C456.743 635.072 457.327 635.2 457.983 635.2ZM457.983 627.28C458.783 627.28 459.439 627.032 459.951 626.536C460.463 626.04 460.719 625.4 460.719 624.616C460.719 623.848 460.463 623.224 459.951 622.744C459.439 622.248 458.783 622 457.983 622C457.199 622 456.551 622.248 456.039 622.744C455.527 623.224 455.271 623.848 455.271 624.616C455.271 625.4 455.527 626.04 456.039 626.536C456.551 627.032 457.199 627.28 457.983 627.28ZM471.346 637.24C470.242 637.24 469.25 636.984 468.37 636.472C467.506 635.96 466.818 635.272 466.306 634.408C465.794 633.544 465.538 632.584 465.538 631.528C465.538 630.056 466.05 628.592 467.074 627.136L471.97 620.344H474.586L469.57 627.184L468.754 627.616C468.946 627.28 469.178 627 469.45 626.776C469.722 626.536 470.058 626.352 470.458 626.224C470.858 626.096 471.33 626.032 471.874 626.032C472.85 626.032 473.73 626.264 474.514 626.728C475.314 627.192 475.954 627.832 476.434 628.648C476.93 629.448 477.178 630.384 477.178 631.456C477.178 632.512 476.914 633.48 476.386 634.36C475.874 635.24 475.17 635.944 474.274 636.472C473.394 636.984 472.418 637.24 471.346 637.24ZM471.346 635.128C472.018 635.128 472.618 634.968 473.146 634.648C473.69 634.312 474.114 633.872 474.418 633.328C474.738 632.768 474.898 632.144 474.898 631.456C474.898 630.768 474.738 630.152 474.418 629.608C474.114 629.048 473.69 628.608 473.146 628.288C472.618 627.968 472.018 627.808 471.346 627.808C470.674 627.808 470.066 627.968 469.522 628.288C468.994 628.608 468.57 629.048 468.25 629.608C467.946 630.152 467.794 630.768 467.794 631.456C467.794 632.144 467.946 632.768 468.25 633.328C468.57 633.888 468.994 634.328 469.522 634.648C470.066 634.968 470.674 635.128 471.346 635.128ZM491.037 637.24C489.789 637.24 488.645 636.888 487.605 636.184C486.581 635.48 485.765 634.488 485.157 633.208C484.549 631.912 484.245 630.392 484.245 628.648C484.245 626.904 484.541 625.392 485.133 624.112C485.741 622.832 486.557 621.848 487.581 621.16C488.605 620.456 489.733 620.104 490.965 620.104C492.229 620.104 493.373 620.456 494.397 621.16C495.421 621.848 496.229 622.832 496.821 624.112C497.429 625.392 497.733 626.912 497.733 628.672C497.733 630.416 497.429 631.936 496.821 633.232C496.229 634.512 495.421 635.504 494.397 636.208C493.389 636.896 492.269 637.24 491.037 637.24ZM490.989 635.104C491.869 635.104 492.637 634.864 493.293 634.384C493.965 633.888 494.493 633.16 494.877 632.2C495.261 631.24 495.453 630.056 495.453 628.648C495.453 627.24 495.261 626.064 494.877 625.12C494.493 624.16 493.965 623.44 493.293 622.96C492.621 622.464 491.845 622.216 490.965 622.216C490.101 622.216 489.333 622.464 488.661 622.96C487.989 623.44 487.461 624.16 487.077 625.12C486.709 626.064 486.525 627.24 486.525 628.648C486.525 630.056 486.709 631.24 487.077 632.2C487.461 633.16 487.989 633.888 488.661 634.384C489.333 634.864 490.109 635.104 490.989 635.104ZM505.467 637.24C504.363 637.24 503.387 637.032 502.539 636.616C501.707 636.2 501.059 635.624 500.595 634.888C500.131 634.152 499.899 633.32 499.899 632.392C499.899 631.64 500.043 630.952 500.331 630.328C500.619 629.704 501.043 629.176 501.603 628.744C502.163 628.296 502.819 627.976 503.571 627.784L503.643 628.432C503.003 628.256 502.459 627.976 502.011 627.592C501.563 627.192 501.219 626.728 500.979 626.2C500.755 625.656 500.643 625.08 500.643 624.472C500.643 623.608 500.851 622.848 501.267 622.192C501.683 621.536 502.251 621.024 502.971 620.656C503.707 620.272 504.539 620.08 505.467 620.08C506.411 620.08 507.243 620.272 507.963 620.656C508.683 621.024 509.251 621.536 509.667 622.192C510.083 622.848 510.291 623.608 510.291 624.472C510.291 625.08 510.171 625.656 509.931 626.2C509.707 626.728 509.371 627.192 508.923 627.592C508.491 627.976 507.955 628.256 507.315 628.432L507.363 627.784C508.131 627.976 508.787 628.296 509.331 628.744C509.891 629.176 510.315 629.704 510.603 630.328C510.907 630.952 511.059 631.64 511.059 632.392C511.059 633.32 510.827 634.152 510.363 634.888C509.899 635.624 509.243 636.2 508.395 636.616C507.563 637.032 506.587 637.24 505.467 637.24ZM505.467 635.2C506.139 635.2 506.723 635.072 507.219 634.816C507.731 634.544 508.131 634.176 508.419 633.712C508.723 633.248 508.875 632.712 508.875 632.104C508.875 631.512 508.723 630.984 508.419 630.52C508.131 630.056 507.731 629.696 507.219 629.44C506.723 629.168 506.139 629.032 505.467 629.032C504.811 629.032 504.227 629.168 503.715 629.44C503.203 629.696 502.795 630.056 502.491 630.52C502.203 630.984 502.059 631.512 502.059 632.104C502.059 632.712 502.203 633.248 502.491 633.712C502.795 634.176 503.203 634.544 503.715 634.816C504.227 635.072 504.811 635.2 505.467 635.2ZM505.467 627.28C506.267 627.28 506.923 627.032 507.435 626.536C507.947 626.04 508.203 625.4 508.203 624.616C508.203 623.848 507.947 623.224 507.435 622.744C506.923 622.248 506.267 622 505.467 622C504.683 622 504.035 622.248 503.523 622.744C503.011 623.224 502.755 623.848 502.755 624.616C502.755 625.4 503.011 626.04 503.523 626.536C504.035 627.032 504.683 627.28 505.467 627.28ZM514.743 637L520.983 621.664L523.215 621.736L517.119 637H514.743ZM512.127 622.36V620.344H523.215V621.736L522.231 622.36H512.127ZM529.405 637.24C528.317 637.24 527.325 637.04 526.429 636.64C525.549 636.224 524.805 635.624 524.197 634.84L525.733 633.304C526.101 633.864 526.605 634.312 527.245 634.648C527.885 634.968 528.597 635.128 529.381 635.128C530.117 635.128 530.749 634.992 531.277 634.72C531.821 634.432 532.245 634.032 532.549 633.52C532.869 633.008 533.029 632.416 533.029 631.744C533.029 631.056 532.869 630.464 532.549 629.968C532.245 629.456 531.813 629.064 531.253 628.792C530.693 628.52 530.029 628.384 529.261 628.384C528.973 628.384 528.685 628.408 528.397 628.456C528.109 628.488 527.829 628.544 527.557 628.624L528.517 627.328C528.821 627.184 529.149 627.072 529.501 626.992C529.853 626.912 530.205 626.872 530.557 626.872C531.453 626.872 532.253 627.08 532.957 627.496C533.677 627.912 534.245 628.496 534.661 629.248C535.093 630 535.309 630.872 535.309 631.864C535.309 632.92 535.053 633.856 534.541 634.672C534.045 635.472 533.357 636.104 532.477 636.568C531.597 637.016 530.573 637.24 529.405 637.24ZM527.557 628.624V627.256L532.429 621.712L535.117 621.688L530.101 627.376L527.557 628.624ZM524.989 622.36V620.344H535.117V621.688L533.149 622.36H524.989Z" fill="#9E9E9E"/>
<path d="M812 284.595C869.965 261.409 947.73 278.631 998.991 309.655C1044.39 337.13 1082.13 379.304 1098.66 430.14C1107.62 457.71 1107.18 513.267 1061.84 499.731C1017.62 486.531 984.404 438.104 962.75 401.031C938.808 360.041 907.211 298.308 919.761 248.353C930.795 204.433 980.352 175.051 1018.65 158.906C1070.88 136.889 1119.17 145.09 1160.54 183.581C1179.88 201.576 1253.27 309.416 1183.67 315.439C1156.1 317.825 1125.59 294.646 1105.98 278.811C1073.67 252.717 1061.21 224.574 1072.05 183.388C1084.76 135.085 1134.65 84.826 1186.37 78.5187C1212.03 75.3893 1240.99 86.4422 1249.21 111.098" stroke="white" stroke-width="61" stroke-linecap="square"/>
<rect width="205.556" height="17" fill="#98F500"/>
<rect x="205.556" width="205.556" height="17" fill="#FF645C"/>
<rect x="411.111" width="205.556" height="17" fill="#5FFFC5"/>
<rect x="616.667" width="205.556" height="17" fill="#FF0ACB"/>
<rect x="822.222" width="94.4445" height="17" fill="#98F500"/>
<rect x="916.667" width="94.4445" height="17" fill="#FF645C"/>
<rect x="1011.11" width="94.4445" height="17" fill="#5FFFC5"/>
<rect x="1105.56" width="94.4445" height="17" fill="#FF0ACB"/>
</g>
<defs>
<clipPath id="clip0_26_21">
<rect width="1200" height="675" fill="white"/>
</clipPath>
</defs>
</svg>
